<svg width="1523" height="1067" viewBox="0 0 1523 1067" fill="none" xmlns="http://www.w3.org/2000/svg">
<g clip-path="url(#clip0_232_19)">
<rect x="1391" y="220" width="132" height="847" fill="url(#paint0_linear_232_19)"/>
<rect x="730" y="514" width="132" height="553" fill="url(#paint1_linear_232_19)"/>
<rect x="69" y="220" width="132" height="847" fill="url(#paint2_linear_232_19)"/>
<rect x="994" y="547" width="132" height="520" fill="url(#paint3_linear_232_19)"/>
<rect x="333" y="547" width="132" height="520" fill="url(#paint4_linear_232_19)"/>
<rect x="1259" y="446" width="132" height="621" fill="url(#paint5_linear_232_19)"/>
<rect x="598" y="547" width="132" height="520" fill="url(#paint6_linear_232_19)"/>
<rect x="862" y="446" width="132" height="621" fill="#3B46FF"/>
<rect x="862" y="446" width="132" height="621" fill="url(#paint7_linear_232_19)"/>
<rect x="201" y="446" width="132" height="621" fill="#3B46FF"/>
<rect x="201" y="446" width="132" height="621" fill="url(#paint8_linear_232_19)"/>
<rect x="1126" y="374" width="133" height="693" fill="url(#paint9_linear_232_19)"/>
<rect x="465" y="590" width="133" height="477" fill="url(#paint10_linear_232_19)"/>
<rect x="-63" y="547" width="132" height="520" fill="url(#paint11_linear_232_19)"/>
</g>
<defs>
<linearGradient id="paint0_linear_232_19" x1="1457" y1="220" x2="1457" y2="1067" gradientUnits="userSpaceOnUse">
<stop stop-color="#FFE762"/>
<stop offset="0.517588" stop-color="#A0342E"/>
<stop offset="1" stop-color="#CA3029"/>
</linearGradient>
<linearGradient id="paint1_linear_232_19" x1="796" y1="514" x2="796" y2="1067" gradientUnits="userSpaceOnUse">
<stop stop-color="#FFE762"/>
<stop offset="0.517588" stop-color="#A0342E"/>
<stop offset="1" stop-color="#CA3029"/>
</linearGradient>
<linearGradient id="paint2_linear_232_19" x1="135" y1="220" x2="135" y2="1067" gradientUnits="userSpaceOnUse">
<stop stop-color="#FFE762"/>
<stop offset="0.517588" stop-color="#A0342E"/>
<stop offset="1" stop-color="#CA3029"/>
</linearGradient>
<linearGradient id="paint3_linear_232_19" x1="1060" y1="547" x2="1060" y2="1067" gradientUnits="userSpaceOnUse">
<stop stop-color="#02F7AD"/>
<stop offset="0.53" stop-color="#00D4CE"/>
<stop offset="1" stop-color="#029CEA"/>
</linearGradient>
<linearGradient id="paint4_linear_232_19" x1="399" y1="547" x2="399" y2="1067" gradientUnits="userSpaceOnUse">
<stop stop-color="#02F7AD"/>
<stop offset="0.53" stop-color="#00D4CE"/>
<stop offset="1" stop-color="#029CEA"/>
</linearGradient>
<linearGradient id="paint5_linear_232_19" x1="1325" y1="446" x2="1325" y2="1067" gradientUnits="userSpaceOnUse">
<stop stop-color="#FF456C"/>
<stop offset="1" stop-color="#FF6091"/>
</linearGradient>
<linearGradient id="paint6_linear_232_19" x1="664" y1="547" x2="664" y2="1067" gradientUnits="userSpaceOnUse">
<stop stop-color="#FF456C"/>
<stop offset="1" stop-color="#FF6091"/>
</linearGradient>
<linearGradient id="paint7_linear_232_19" x1="928" y1="446" x2="928" y2="1067" gradientUnits="userSpaceOnUse">
<stop stop-color="#B2EDFF"/>
<stop offset="0.485" stop-color="white"/>
<stop offset="1" stop-color="#55E0FF"/>
</linearGradient>
<linearGradient id="paint8_linear_232_19" x1="267" y1="446" x2="267" y2="1067" gradientUnits="userSpaceOnUse">
<stop stop-color="#B2EDFF"/>
<stop offset="0.485" stop-color="white"/>
<stop offset="1" stop-color="#55E0FF"/>
</linearGradient>
<linearGradient id="paint9_linear_232_19" x1="1192.5" y1="374" x2="1192.5" y2="1067" gradientUnits="userSpaceOnUse">
<stop stop-color="#FFC7D6"/>
<stop offset="0.51" stop-color="#CB1B63"/>
<stop offset="1" stop-color="#570D43"/>
</linearGradient>
<linearGradient id="paint10_linear_232_19" x1="531.5" y1="590" x2="531.5" y2="1067" gradientUnits="userSpaceOnUse">
<stop stop-color="#FFC7D6"/>
<stop offset="0.51" stop-color="#CB1B63"/>
<stop offset="1" stop-color="#570D43"/>
</linearGradient>
<linearGradient id="paint11_linear_232_19" x1="3" y1="547" x2="3" y2="1067" gradientUnits="userSpaceOnUse">
<stop stop-color="#FF456C"/>
<stop offset="1" stop-color="#FF6091"/>
</linearGradient>
<clipPath id="clip0_232_19">
<rect width="1523" height="1067" fill="white"/>
</clipPath>
</defs>
</svg>
