<svg width="24" height="24" viewBox="0 0 24 24" fill="none" xmlns="http://www.w3.org/2000/svg">
<rect x="0.5" y="0.5" width="23" height="23" stroke="white"/>
<path d="M12.0002 18L16.7072 13.293C17.0982 12.902 17.0982 12.27 16.7072 11.879C16.3162 11.488 15.6842 11.488 15.2932 11.879L13.0002 14.172L13.0002 6.586C13.0002 6.034 12.5532 5.586 12.0002 5.586C11.4472 5.586 11.0002 6.034 11.0002 6.586L11.0002 14.172L8.70724 11.879C8.51224 11.684 8.25624 11.586 8.00024 11.586C7.74424 11.586 7.48824 11.684 7.29324 11.879C6.90224 12.27 6.90224 12.902 7.29324 13.293L12.0002 18Z" fill="white"/>
</svg>
