<svg width="409" height="72" viewBox="0 0 409 72" fill="none" xmlns="http://www.w3.org/2000/svg">
<path d="M26.334 17.144H18.414V26.747H26.334V42.191H18.414V55.556H26.334V71H0.594V1.7H26.334V17.144ZM27.5676 1.7H50.3376V39.716H51.5256V1.7H74.0976V71H57.7626L59.8416 33.38H58.6536L56.2776 71H45.3876L43.0116 33.38H41.8236L43.9026 71H27.5676V1.7ZM79.7824 1.7H107.502L111.858 71H94.0384V32.786H92.8504V71H75.0304L79.7824 1.7ZM98.0974 56.744H88.4944V41.3H98.0974V56.744ZM112.742 1.7H130.562V71H112.742V1.7ZM131.788 1.7H149.608V55.556H157.528V71H131.788V1.7ZM178.686 1.7H206.406L210.762 71H192.942V32.786H191.754V71H173.934L178.686 1.7ZM197.001 56.744H187.398V41.3H197.001V56.744ZM243.221 1.7V17.144H234.311V71H216.491V17.144H207.581V1.7H243.221ZM279.669 1.7V17.144H270.759V71H252.939V17.144H244.029V1.7H279.669ZM281.166 1.7H308.886L313.242 71H295.422V32.786H294.234V71H276.414L281.166 1.7ZM299.481 56.744H289.878V41.3H299.481V56.744ZM330.979 17.738V54.962C330.979 55.226 330.979 55.457 330.979 55.655C331.045 55.853 331.078 56.018 331.078 56.15C331.144 56.282 331.21 56.381 331.276 56.447C331.408 56.513 331.507 56.546 331.573 56.546C331.705 56.546 331.804 56.513 331.87 56.447C331.936 56.381 331.969 56.282 331.969 56.15C332.035 56.018 332.068 55.853 332.068 55.655C332.134 55.457 332.167 55.226 332.167 54.962V37.34H349.987V53.576C349.987 56.546 349.558 59.186 348.7 61.496C347.908 63.74 346.687 65.654 345.037 67.238C343.453 68.756 341.506 69.944 339.196 70.802C336.886 71.594 334.246 71.99 331.276 71.99C328.372 71.99 325.798 71.594 323.554 70.802C321.31 70.01 319.396 68.855 317.812 67.337C316.294 65.753 315.139 63.806 314.347 61.496C313.555 59.186 313.159 56.546 313.159 53.576V19.025C313.159 16.055 313.555 13.415 314.347 11.105C315.139 8.795 316.294 6.881 317.812 5.363C319.396 3.845 321.31 2.69 323.554 1.898C325.798 1.106 328.372 0.709996 331.276 0.709996C334.246 0.709996 336.886 1.139 339.196 1.997C341.506 2.789 343.453 3.977 345.037 5.561C346.687 7.079 347.908 8.993 348.7 11.303C349.558 13.547 349.987 16.121 349.987 19.025V35.36H332.167V17.738C332.167 17.408 332.134 17.144 332.068 16.946C332.068 16.748 332.035 16.616 331.969 16.55C331.969 16.418 331.936 16.319 331.87 16.253C331.804 16.187 331.705 16.154 331.573 16.154C331.507 16.154 331.408 16.187 331.276 16.253C331.21 16.319 331.144 16.418 331.078 16.55C331.078 16.616 331.045 16.748 330.979 16.946C330.979 17.144 330.979 17.408 330.979 17.738ZM368.975 1.7V28.727H370.163V1.7H388.973L384.815 36.35L388.973 71H370.163V44.072H368.975V71H351.155V1.7H368.975ZM389.826 1.7H407.646V11.6L405.666 52.883H391.806L389.826 11.6V1.7ZM390.222 62.585C390.222 59.615 390.948 57.371 392.4 55.853C393.852 54.335 395.964 53.576 398.736 53.576C401.442 53.576 403.521 54.368 404.973 55.952C406.491 57.47 407.25 59.714 407.25 62.684C407.25 65.588 406.524 67.799 405.072 69.317C403.62 70.769 401.508 71.495 398.736 71.495C395.964 71.495 393.852 70.736 392.4 69.218C390.948 67.7 390.222 65.489 390.222 62.585Z" fill="white"/>
</svg>
