<svg width="51" height="35" viewBox="0 0 51 35" fill="none" xmlns="http://www.w3.org/2000/svg">
<g clip-path="url(#clip0_222_22)">
<path d="M42.6346 0.0410156L7.95126 0.0410156C5.97467 0.0541048 4.08337 0.847934 2.68955 2.24949C1.29573 3.65106 0.512392 5.54673 0.510254 7.52336L0.510254 27.3247C0.523343 29.3013 1.31717 31.1926 2.71873 32.5864C4.12029 33.9803 6.01597 34.7636 7.9926 34.7657H42.6346C44.6041 34.7527 46.4892 33.9646 47.8819 32.5719C49.2745 31.1793 50.0626 29.2942 50.0756 27.3247V7.52336C50.0735 5.54673 49.2902 3.65106 47.8964 2.24949C46.5025 0.847934 44.6112 0.0541048 42.6346 0.0410156ZM46.3551 31.7315L30.142 17.8664C28.7908 19.0325 27.0654 19.674 25.2805 19.674C23.4957 19.674 21.7703 19.0325 20.4191 17.8664L4.49533 31.9216C4.0453 31.6104 3.64643 31.231 3.31303 30.7972L19.1459 16.8081L3.61894 3.6375C3.98812 3.21205 4.42367 2.8491 4.90872 2.56269L21.5352 16.6593C22.5776 17.5341 23.8949 18.0136 25.2557 18.0136C26.6166 18.0136 27.9339 17.5341 28.9763 16.6593L45.6028 2.60403C46.0878 2.89044 46.5234 3.25339 46.8926 3.67884L31.4152 16.7833L47.4548 30.4913C47.1516 30.9568 46.781 31.3747 46.3551 31.7315Z" fill="url(#paint0_linear_222_22)"/>
</g>
<defs>
<linearGradient id="paint0_linear_222_22" x1="25.293" y1="0.0410156" x2="25.293" y2="34.7657" gradientUnits="userSpaceOnUse">
<stop stop-color="white"/>
<stop offset="1" stop-color="#999999"/>
</linearGradient>
<clipPath id="clip0_222_22">
<rect width="51" height="35" fill="white"/>
</clipPath>
</defs>
</svg>
