<svg width="41" height="29" viewBox="0 0 41 29" fill="none" xmlns="http://www.w3.org/2000/svg">
<path d="M33.9391 0.806641L6.73648 0.806641C5.18621 0.816907 3.70283 1.43952 2.60964 2.53878C1.51645 3.63804 0.902068 5.12485 0.900391 6.67515L0.900391 22.2056C0.910657 23.7559 1.53327 25.2393 2.63253 26.3325C3.73179 27.4256 5.2186 28.04 6.7689 28.0417H33.9391C35.4838 28.0315 36.9623 27.4134 38.0546 26.3211C39.1469 25.2288 39.765 23.7503 39.7752 22.2056V6.67515C39.7735 5.12485 39.1592 3.63804 38.066 2.53878C36.9728 1.43952 35.4894 0.816907 33.9391 0.806641ZM36.8572 25.6619L24.141 14.7873C23.0812 15.7019 21.7279 16.2051 20.3281 16.2051C18.9282 16.2051 17.575 15.7019 16.5152 14.7873L4.02594 25.811C3.67297 25.5669 3.36014 25.2694 3.09865 24.9291L15.5165 13.9573L3.33858 3.62742C3.62813 3.29373 3.96974 3.00906 4.35017 2.78443L17.3906 13.8406C18.2081 14.5267 19.2413 14.9028 20.3086 14.9028C21.3759 14.9028 22.4091 14.5267 23.2267 13.8406L36.2671 2.81685C36.6475 3.04148 36.9891 3.32615 37.2787 3.65984L25.1396 13.9378L37.7196 24.6892C37.4818 25.0543 37.1912 25.3821 36.8572 25.6619Z" fill="url(#paint0_linear_235_188)"/>
<defs>
<linearGradient id="paint0_linear_235_188" x1="20.3378" y1="0.806641" x2="20.3378" y2="28.0417" gradientUnits="userSpaceOnUse">
<stop stop-color="white"/>
<stop offset="1" stop-color="#999999"/>
</linearGradient>
</defs>
</svg>
