<svg width="356" height="135" viewBox="0 0 356 135" fill="none" xmlns="http://www.w3.org/2000/svg">
<path d="M34.1571 101.595C30.5616 101.595 26.7414 101.109 22.6965 100.135C18.6516 99.161 15.2808 97.4757 12.5842 95.0787C12.0598 94.6292 11.5355 94.03 11.0112 93.2809C10.4868 92.5319 9.85012 91.7828 9.10106 91.0338C8.20219 90.1349 7.26587 89.2735 6.29209 88.4495C5.31831 87.6255 4.5318 86.7641 3.93256 85.8653C3.63293 85.3409 3.37076 84.4795 3.14604 83.281C2.99623 82.0076 2.95878 80.884 3.03369 79.9102C3.40822 76.3148 4.68161 72.6069 6.85388 68.7867C9.02615 64.9665 11.8351 61.2212 15.2808 57.5509C18.7265 53.8056 22.5467 50.285 26.7414 46.9891C31.011 43.6933 35.4305 40.8094 39.9997 38.3375C44.569 35.7907 49.0633 33.8057 53.4828 32.3825C57.9022 30.9593 61.9471 30.2477 65.6175 30.2477C66.5164 30.2477 67.228 30.2477 67.7523 30.2477C68.2767 30.1728 69.5126 30.3975 71.4602 30.9218C72.9583 31.3713 74.6062 32.2327 76.4039 33.5061C78.2017 34.7795 79.7373 36.2776 81.0107 38.0004C82.359 39.7233 82.9208 41.4835 82.696 43.2813C82.696 43.4311 82.6211 43.6558 82.4713 43.9554C82.3964 44.2551 82.359 44.5172 82.359 44.742C82.4339 45.2663 81.9844 46.0528 81.0107 47.1015C80.1118 48.0753 79.138 48.9741 78.0893 49.7981C77.0406 50.6221 76.2916 51.034 75.8422 51.034C75.6174 51.034 75.5051 50.9966 75.5051 50.9217C75.5051 50.8468 75.4302 50.8093 75.2804 50.8093C75.2804 50.7344 75.2429 50.6595 75.168 50.5846C75.168 50.5097 75.168 50.3973 75.168 50.2475C75.2429 49.9479 75.6923 49.3112 76.5163 48.3374C77.4152 47.3637 78.2766 46.2775 79.1006 45.079C79.9994 43.8805 80.4489 42.8693 80.4489 42.0453C80.4489 40.9967 79.8496 40.1727 78.6511 39.5734C77.5275 38.9742 76.1792 38.5622 74.6062 38.3375C73.1081 38.0379 71.6849 37.8506 70.3366 37.7757C69.0632 37.7008 68.3141 37.6634 68.0894 37.6634C63.5201 37.6634 58.7262 38.5622 53.7075 40.36C48.6888 42.1577 43.745 44.667 38.8761 47.888C34.0822 51.034 29.7002 54.667 25.7302 58.7868C21.7601 62.8317 18.4643 67.1388 15.8426 71.7081C13.2958 76.2024 11.7977 80.7342 11.3482 85.3035C11.0486 88.3746 11.7228 90.7716 13.3707 92.4944C15.0186 94.2173 17.116 95.4157 19.6628 96.0899C22.2845 96.7641 24.9062 97.1011 27.5279 97.1011C29.4754 97.1011 31.2357 96.9888 32.8088 96.7641C35.2057 96.3895 38.0896 95.7154 41.4604 94.7416C44.906 93.7678 48.4266 92.4944 52.0221 90.9214C55.6925 89.3484 59.1382 87.5132 62.3591 85.4158C65.5801 83.3185 68.2392 80.9964 70.3366 78.4496C72.5088 75.9028 73.7448 73.1313 74.0444 70.135C74.1942 68.562 73.8571 67.3635 73.0332 66.5396C72.2841 65.6407 71.2729 65.004 69.9995 64.6295C68.7261 64.18 67.4527 63.9178 66.1793 63.8429C64.9808 63.6931 63.9696 63.6182 63.1456 63.6182C59.4752 63.6182 55.4678 64.2175 51.1232 65.416C46.7787 66.5396 42.921 67.813 39.5503 69.2362C39.7001 69.3111 39.8874 69.3485 40.1121 69.3485C40.4117 69.3485 40.6739 69.3485 40.8986 69.3485C41.4978 69.3485 42.0971 69.3485 42.6963 69.3485C43.2956 69.2736 43.8574 69.2362 44.3817 69.2362C44.3817 69.2362 44.3817 69.2736 44.3817 69.3485C44.4566 69.4234 44.4941 69.4983 44.4941 69.5732L35.0559 71.371C34.3818 71.4459 33.7451 70.9964 33.1458 70.0227C32.6215 69.0489 32.3968 68.2624 32.4717 67.6631C32.6215 66.2399 33.7076 65.004 35.7301 63.9553C37.7525 62.8317 40.3368 61.8954 43.4828 61.1463C46.7038 60.3973 50.1869 59.8355 53.9322 59.4609C57.7524 59.0864 61.5726 58.8992 65.3928 58.8992C69.7373 58.8992 73.7448 59.1613 77.4152 59.6857C81.1605 60.1351 83.9694 60.8842 85.8421 61.9328C86.5911 62.3074 87.3777 62.9066 88.2016 63.7306C89.1005 64.4796 89.5499 65.3411 89.5499 66.3148C89.5499 66.9141 89.5125 67.2512 89.4376 67.3261C89.3627 67.401 89.063 67.4384 88.5387 67.4384C87.1155 66.0152 85.7672 65.0414 84.4938 64.5171C83.2953 63.9928 82.0968 63.7306 80.8983 63.7306C80.2241 63.7306 79.55 63.8055 78.8758 63.9553C78.2017 64.0302 77.4901 64.1426 76.741 64.2924C77.1905 64.592 77.7897 65.1163 78.5388 65.8654C79.2878 66.5396 79.9245 67.5133 80.4489 68.7867C81.0481 69.9852 81.2354 71.5208 81.0107 73.3934C80.8608 75.2661 80.0369 77.2885 78.5388 79.4608C77.1156 81.5582 75.3178 83.5806 73.1455 85.5282C66.8535 91.221 60.2617 95.3408 53.3704 97.8876C46.4791 100.36 40.0746 101.595 34.1571 101.595ZM86.3029 99.2359C85.1044 99.2359 84.0932 98.824 83.2692 98C82.5202 97.2509 81.9584 96.3521 81.5839 95.3034C81.2093 94.2547 81.0221 93.3558 81.0221 92.6068C81.0221 90.06 81.8086 87.3634 83.3816 84.517C84.9546 81.6705 86.9771 79.0114 89.449 76.5395C91.9958 74.0676 94.6549 72.0451 97.4264 70.4721C100.198 68.8991 102.782 68.1126 105.179 68.1126C106.902 68.1126 108.625 69.2736 110.348 71.5957C110.498 71.8204 110.647 72.12 110.797 72.4946C111.022 72.8691 111.134 73.2436 111.134 73.6182C111.134 74.2923 110.872 74.7417 110.348 74.9665C110.273 75.0414 110.086 74.8166 109.786 74.2923C109.561 73.6931 108.775 73.3934 107.426 73.3934C106.153 73.3934 104.468 73.9927 102.37 75.1912C100.273 76.3897 98.0631 77.9627 95.7411 79.9102C93.4939 81.8578 91.434 83.9552 89.5613 86.2023C87.7636 88.4495 86.4527 90.6218 85.6288 92.7191C85.479 93.2435 85.3292 93.7678 85.1793 94.2922C85.0295 94.8165 84.9546 95.2659 84.9546 95.6405C84.9546 96.3146 85.1793 96.6517 85.6288 96.6517C86.0782 96.6517 86.6775 96.3895 87.4265 95.8652C88.9995 94.7416 90.6475 93.3558 92.3703 91.7079C94.0931 89.9851 95.7411 88.2248 97.3141 86.427C98.962 84.5544 100.348 82.7941 101.471 81.1462C102.595 79.4983 103.307 78.15 103.606 77.1013C103.756 76.502 104.617 76.2024 106.19 76.2024C107.464 76.2024 108.55 76.502 109.449 77.1013C110.348 77.6256 110.572 78.2249 110.123 78.899C108.775 80.9215 107.464 83.0563 106.19 85.3035C104.917 87.4757 103.981 89.6855 103.381 91.9326C103.307 92.2323 103.232 92.4944 103.157 92.7191C103.157 92.9439 103.157 93.1311 103.157 93.2809C103.157 94.03 103.456 94.4045 104.056 94.4045C104.73 94.4045 105.479 94.0674 106.303 93.3933C107.876 91.8952 109.524 89.9851 111.247 87.663C113.044 85.266 114.88 82.9065 116.752 80.5844C117.426 79.8353 117.876 79.4608 118.1 79.4608C118.325 79.4608 118.438 79.6481 118.438 80.0226C118.438 80.3222 118.363 80.6218 118.213 80.9215C117.913 81.6705 117.501 82.457 116.977 83.281C116.453 84.0301 115.966 84.7042 115.516 85.3035C115.142 85.8278 114.505 86.7641 113.606 88.1124C112.707 89.4607 111.659 90.8839 110.46 92.3821C109.262 93.8802 108.026 95.191 106.752 96.3146C105.479 97.3633 104.28 97.8876 103.157 97.8876C101.584 97.8876 100.31 97.4008 99.3365 96.427C98.4377 95.3783 97.9882 94.442 97.9882 93.618C97.9882 92.5693 98.0257 91.8577 98.1006 91.4832C98.2504 90.7341 98.4751 89.8353 98.7748 88.7866C99.1493 87.7379 99.4864 86.7267 99.786 85.7529C99.1867 86.5769 98.2879 87.7379 97.0894 89.236C95.8909 90.7341 94.58 92.2697 93.1568 93.8427C91.8085 95.3408 90.4977 96.6142 89.2243 97.6629C87.9509 98.7116 86.9771 99.2359 86.3029 99.2359ZM147.261 106.764C145.014 106.764 143.516 106.09 142.767 104.742C142.093 103.393 141.755 102.12 141.755 100.921C141.755 98.3745 142.317 95.7903 143.441 93.1686C144.639 90.472 145.913 87.8128 147.261 85.1911C147.86 84.0675 148.534 82.7941 149.284 81.3709C150.033 79.9477 150.669 78.5994 151.194 77.326C151.718 76.0526 151.98 75.1163 151.98 74.517C151.98 73.8429 151.681 73.5058 151.081 73.5058C150.182 73.5058 149.096 74.1425 147.823 75.4159C146.549 76.6893 145.164 78.3372 143.666 80.3597C142.167 82.3821 140.707 84.442 139.284 86.5394C137.935 88.6368 136.737 90.5469 135.688 92.2697C134.714 93.9925 134.04 95.2285 133.666 95.9775C132.992 97.4757 132.093 98.2247 130.969 98.2247C129.771 98.2247 128.422 97.3633 126.924 95.6405C127.598 94.0674 128.422 92.1948 129.396 90.0225C130.37 87.7754 131.306 85.5282 132.205 83.281C133.104 80.9589 133.741 78.9365 134.115 77.2136C134.19 76.8391 134.227 76.502 134.227 76.2024C134.302 75.9028 134.34 75.6032 134.34 75.3035C134.34 74.105 134.04 73.5058 133.441 73.5058C132.842 73.5058 132.13 73.9178 131.306 74.7417C130.257 75.6406 128.947 77.0638 127.374 79.0114C125.875 80.9589 124.34 83.0937 122.767 85.4158C121.269 87.663 119.958 89.8353 118.834 91.9326C117.711 94.03 116.999 95.7528 116.699 97.1011C116.625 97.7753 116.063 98.1124 115.014 98.1124C114.04 98.1124 113.179 97.7378 112.43 96.9888C111.681 96.2397 111.306 95.2285 111.306 93.9551C111.306 93.6555 111.606 92.794 112.205 91.3708C112.804 89.9476 113.516 88.2622 114.34 86.3147C115.239 84.3671 116.1 82.5319 116.924 80.8091C117.748 79.0114 118.385 77.6256 118.834 76.6518C118.31 76.2024 118.048 75.8279 118.048 75.5283C118.123 75.2286 118.198 74.929 118.273 74.6294L121.531 68.6744C121.756 68.5246 122.467 68.2624 123.666 67.8879C124.864 67.4384 125.95 67.2137 126.924 67.2137C128.198 67.2137 128.834 67.6631 128.834 68.562C128.834 69.0863 128.572 69.8354 128.048 70.8092C127.748 71.2586 127.149 72.2698 126.25 73.8429C125.351 75.4159 124.377 77.1762 123.329 79.1237C122.28 81.0713 121.344 82.8316 120.52 84.4046C119.771 85.9776 119.396 86.9514 119.396 87.3259C119.396 87.6255 119.696 87.3259 120.295 86.427C120.969 85.5282 121.756 84.4046 122.654 83.0563C123.628 81.6331 124.527 80.2848 125.351 79.0114C126.25 77.6631 126.924 76.7267 127.374 76.2024C128.497 74.8541 129.471 73.6182 130.295 72.4946C131.194 71.371 132.355 70.8092 133.778 70.8092C135.95 70.8092 137.561 71.3335 138.609 72.3822C139.658 73.4309 140.182 74.6294 140.182 75.9777C140.182 77.2511 139.845 78.7867 139.171 80.5844C138.497 82.3821 137.86 83.9552 137.261 85.3035C137.785 84.854 138.684 83.7679 139.958 82.0451C141.231 80.2473 142.654 78.3372 144.227 76.3148C145.8 74.2923 147.299 72.532 148.722 71.0339C150.22 69.5358 151.418 68.7867 152.317 68.7867C153.516 68.7867 154.677 69.0863 155.8 69.6856C156.924 70.2848 157.823 71.0339 158.497 71.9328C159.246 72.8316 159.546 73.768 159.396 74.7417C158.871 77.2885 157.973 79.4983 156.699 81.3709C155.426 83.1686 153.928 85.3035 152.205 87.7754C150.707 90.0974 149.209 92.6068 147.71 95.3034C146.212 98 145.463 100.434 145.463 102.607C145.463 103.206 145.538 103.73 145.688 104.18C145.913 104.704 146.212 104.966 146.587 104.966C146.961 104.966 147.523 104.667 148.272 104.067C148.872 103.618 149.433 103.094 149.958 102.494C150.557 101.97 151.119 101.558 151.643 101.258C152.018 100.884 152.28 100.697 152.43 100.697C152.879 100.697 152.916 101.034 152.542 101.708C151.943 103.056 151.231 104.217 150.407 105.191C149.583 106.24 148.534 106.764 147.261 106.764ZM168.381 99.4607C166.583 99.4607 164.786 98.9363 162.988 97.8876C161.265 96.7641 160.179 94.8165 159.729 92.045C159.654 91.7454 159.617 91.2585 159.617 90.5843C159.617 88.3371 160.216 85.9027 161.415 83.281C162.688 80.5844 164.299 78.0376 166.246 75.6406C168.269 73.2436 170.403 71.2961 172.651 69.798C174.898 68.2998 177.033 67.5508 179.055 67.5508C179.505 68.0751 180.216 68.4497 181.19 68.6744C182.239 68.8991 183.212 69.1238 184.111 69.3485C185.16 69.6481 185.909 70.135 186.358 70.8092C186.883 71.4833 187.145 72.2324 187.145 73.0564C187.145 74.0301 186.808 75.1163 186.134 76.3148C185.46 77.4383 184.598 78.4496 183.549 79.3484C181.827 80.6968 179.842 82.0451 177.594 83.3934C175.347 84.6668 173.287 85.9402 171.415 87.2136C169.617 88.4121 168.456 89.6105 167.932 90.809C167.782 91.1836 167.557 91.3708 167.257 91.3708C166.733 91.3708 166.583 91.0712 166.808 90.472C167.557 88.2248 168.868 86.3147 170.741 84.7417C172.613 83.1686 174.561 81.708 176.583 80.3597C178.681 78.9365 180.366 77.4383 181.639 75.8653C182.613 74.8166 183.1 73.8429 183.1 72.944C183.1 71.9702 182.576 71.4833 181.527 71.4833C180.628 71.4833 179.654 71.8579 178.606 72.6069C175.609 74.6294 172.8 77.326 170.179 80.6968C167.557 83.9926 165.797 87.4008 164.898 90.9214C164.673 91.8203 164.561 92.6442 164.561 93.3933C164.561 94.8165 164.935 95.8277 165.684 96.427C166.433 96.9513 167.332 97.2135 168.381 97.2135C169.28 97.2135 170.216 97.0637 171.19 96.7641C172.164 96.4644 173.025 96.0899 173.774 95.6405C174.898 94.9663 176.021 94.1049 177.145 93.0562C178.269 91.9326 179.205 90.9214 179.954 90.0225C181.677 87.8503 182.875 86.7641 183.549 86.7641C183.924 86.7641 183.849 87.2885 183.325 88.3371C182.875 89.3858 181.902 90.8465 180.403 92.7191C178.98 94.5169 177.257 96.0899 175.235 97.4382C173.287 98.7865 171.003 99.4607 168.381 99.4607ZM210.847 99.6854C208.375 99.6854 206.316 98.824 204.668 97.1011C203.095 95.3783 202.308 93.0937 202.308 90.2472C202.308 87.8503 202.87 85.4533 203.993 83.0563C205.117 80.5844 206.353 78.4496 207.701 76.6518C209.724 74.0301 212.046 71.8204 214.668 70.0227C217.364 68.2249 219.873 67.3261 222.196 67.3261C223.02 67.3261 223.769 67.813 224.443 68.7867C225.192 69.6856 226.166 70.2099 227.364 70.3597C227.664 70.4347 227.963 70.547 228.263 70.6968C228.637 70.7717 229.012 71.1088 229.387 71.7081C230.36 73.356 230.847 75.1163 230.847 76.9889C230.847 79.7604 229.948 82.7567 228.151 85.9776C226.428 89.1986 224.143 92.0824 221.297 94.6292C219.873 95.9026 218.263 97.0637 216.465 98.1124C214.668 99.161 212.795 99.6854 210.847 99.6854ZM211.072 97.4382C212.87 97.4382 214.78 96.7266 216.802 95.3034C218.825 93.8053 220.697 91.9701 222.42 89.7978C224.218 87.5506 225.641 85.266 226.69 82.9439C227.813 80.5469 228.375 78.4496 228.375 76.6518C228.375 75.2286 228.038 74.1799 227.364 73.5058C226.69 72.7567 225.828 72.3822 224.78 72.3822C222.907 72.3822 220.997 73.3185 219.05 75.1912C217.102 77.0638 215.192 79.1986 213.319 81.5956C211.671 83.693 210.211 85.8653 208.937 88.1124C207.739 90.3596 207.139 92.3072 207.139 93.9551C207.139 95.1536 207.551 96.0524 208.375 96.6517C209.199 97.176 210.098 97.4382 211.072 97.4382ZM239.122 99.573C236.351 99.573 234.403 98.7116 233.28 96.9888C232.231 95.2659 231.707 93.2435 231.707 90.9214C231.707 89.1986 231.931 87.5132 232.381 85.8653C232.83 84.1424 233.354 82.6818 233.954 81.4833C233.729 81.3335 233.542 81.1836 233.392 81.0338C233.242 80.8091 233.317 80.472 233.617 80.0226C234.366 79.0488 235.265 77.8129 236.313 76.3148C237.437 74.7417 238.56 73.3185 239.684 72.0451C240.883 70.6968 241.856 69.9103 242.605 69.6856C243.205 69.5358 243.617 69.4609 243.841 69.4609C244.665 69.4609 245.265 69.723 245.639 70.2474C246.014 70.6968 246.388 71.1463 246.763 71.5957C247.212 72.0451 247.886 72.3073 248.785 72.3822C247.587 73.5807 246.463 74.7417 245.414 75.8653C244.366 76.9889 243.429 78.15 242.605 79.3484C241.407 80.9964 240.208 83.0188 239.01 85.4158C237.811 87.7379 237.212 90.2098 237.212 92.8315C237.212 95.0787 237.886 96.2023 239.235 96.2023C240.433 96.2023 242.118 95.3034 244.291 93.5057C246.163 92.0075 247.886 90.1723 249.459 88.0001C251.107 85.8278 252.53 83.5806 253.729 81.2585C254.927 78.8616 255.789 76.7267 256.313 74.8541C256.912 72.9065 257.287 71.0714 257.437 69.3485C257.587 67.5508 257.624 66.3148 257.549 65.6407H257.661C258.036 65.6407 258.485 65.5283 259.01 65.3036C259.609 65.0789 260.096 65.004 260.47 65.0789C261.744 65.2287 262.68 65.7156 263.279 66.5396C263.879 67.2886 264.178 68.1875 264.178 69.2362C264.178 70.2848 263.879 71.4833 263.279 72.8316C262.755 74.0301 262.006 75.1163 261.032 76.09C260.058 76.9889 259.085 77.8503 258.111 78.6743C256.313 81.5956 254.291 84.7417 252.043 88.1124C249.871 91.4083 247.587 94.2547 245.19 96.6517C243.242 98.5992 241.22 99.573 239.122 99.573ZM269.548 99.4607C267.75 99.4607 265.952 98.9363 264.155 97.8876C262.432 96.7641 261.346 94.8165 260.896 92.045C260.821 91.7454 260.784 91.2585 260.784 90.5843C260.784 88.3371 261.383 85.9027 262.582 83.281C263.855 80.5844 265.465 78.0376 267.413 75.6406C269.435 73.2436 271.57 71.2961 273.817 69.798C276.065 68.2998 278.199 67.5508 280.222 67.5508C280.671 68.0751 281.383 68.4497 282.357 68.6744C283.405 68.8991 284.379 69.1238 285.278 69.3485C286.327 69.6481 287.076 70.135 287.525 70.8092C288.049 71.4833 288.312 72.2324 288.312 73.0564C288.312 74.0301 287.975 75.1163 287.3 76.3148C286.626 77.4383 285.765 78.4496 284.716 79.3484C282.993 80.6968 281.008 82.0451 278.761 83.3934C276.514 84.6668 274.454 85.9402 272.581 87.2136C270.784 88.4121 269.623 89.6105 269.098 90.809C268.948 91.1836 268.724 91.3708 268.424 91.3708C267.9 91.3708 267.75 91.0712 267.975 90.472C268.724 88.2248 270.035 86.3147 271.907 84.7417C273.78 83.1686 275.727 81.708 277.75 80.3597C279.847 78.9365 281.533 77.4383 282.806 75.8653C283.78 74.8166 284.267 73.8429 284.267 72.944C284.267 71.9702 283.742 71.4833 282.694 71.4833C281.795 71.4833 280.821 71.8579 279.772 72.6069C276.776 74.6294 273.967 77.326 271.345 80.6968C268.724 83.9926 266.963 87.4008 266.065 90.9214C265.84 91.8203 265.728 92.6442 265.728 93.3933C265.728 94.8165 266.102 95.8277 266.851 96.427C267.6 96.9513 268.499 97.2135 269.548 97.2135C270.447 97.2135 271.383 97.0637 272.357 96.7641C273.33 96.4644 274.192 96.0899 274.941 95.6405C276.065 94.9663 277.188 94.1049 278.312 93.0562C279.435 91.9326 280.372 90.9214 281.121 90.0225C282.844 87.8503 284.042 86.7641 284.716 86.7641C285.091 86.7641 285.016 87.2885 284.491 88.3371C284.042 89.3858 283.068 90.8465 281.57 92.7191C280.147 94.5169 278.424 96.0899 276.402 97.4382C274.454 98.7865 272.169 99.4607 269.548 99.4607ZM296.962 99.4607C294.864 99.4607 293.441 98.7865 292.692 97.4382C292.018 96.015 291.793 94.5918 292.018 93.1686C292.317 91.221 292.954 89.4607 293.928 87.8877C294.977 86.3147 296.025 84.8166 297.074 83.3934C297.823 82.4196 298.347 81.5956 298.647 80.9215C299.021 80.2473 298.909 79.8728 298.31 79.7979C297.935 80.0975 297.336 80.3971 296.512 80.6968C295.688 80.9964 294.864 81.1462 294.04 81.1462C293.366 81.1462 292.729 80.9964 292.13 80.6968C291.531 80.3971 291.119 79.8728 290.894 79.1237C290.145 80.3222 289.433 81.4458 288.759 82.4945C288.085 83.4683 287.448 84.4046 286.849 85.3035C285.726 86.8765 284.677 88.3746 283.703 89.7978C282.729 91.1461 281.456 92.7191 279.883 94.5169C279.359 95.1161 278.872 95.4157 278.422 95.4157C277.973 95.4157 277.748 95.1536 277.748 94.6292C277.748 94.3296 277.861 94.03 278.085 93.7304C279.808 91.633 281.231 89.8353 282.355 88.3371C283.478 86.7641 284.789 84.9289 286.287 82.8316C287.786 80.5844 289.096 78.075 290.22 75.3035C291.344 72.532 292.242 70.0601 292.917 67.8879C293.591 65.6407 293.965 64.2924 294.04 63.8429C295.988 64.592 297.336 65.416 298.085 66.3148C298.909 67.2137 299.321 68.1875 299.321 69.2362C299.321 70.6594 298.647 72.12 297.299 73.6182C296.025 75.1163 294.527 76.502 292.804 77.7754C293.478 78.7492 294.265 79.2361 295.164 79.2361C296.138 79.2361 297.111 78.8241 298.085 78.0001C299.134 77.1762 299.92 76.502 300.445 75.9777C301.643 74.4796 302.954 73.7305 304.377 73.7305C305.201 73.7305 305.913 73.9927 306.512 74.517C307.186 74.9665 307.523 75.5657 307.523 76.3148C307.523 76.6893 307.411 77.0638 307.186 77.4383C306.063 78.9365 304.789 80.7717 303.366 82.9439C301.943 85.1162 300.632 87.2885 299.433 89.4607C298.31 91.5581 297.486 93.3558 296.962 94.854C296.887 95.1536 296.812 95.4157 296.737 95.6405C296.737 95.7903 296.737 95.9401 296.737 96.0899C296.737 96.6891 296.999 96.9888 297.523 96.9888C297.898 96.9888 298.347 96.839 298.872 96.5393C299.396 96.2397 299.808 95.9401 300.108 95.6405C301.456 94.442 303.141 92.5693 305.164 90.0225C307.186 87.4757 309.059 85.0413 310.782 82.7192C311.83 81.2211 312.542 80.472 312.916 80.472C313.291 80.472 313.291 80.9589 312.916 81.9327C312.617 82.9065 312.055 84.0301 311.231 85.3035C310.108 86.8765 308.797 88.7866 307.299 91.0338C305.875 93.206 304.265 95.1536 302.467 96.8764C300.744 98.5992 298.909 99.4607 296.962 99.4607ZM322.334 85.1911C321.885 85.1911 321.436 85.1162 320.986 84.9664C320.237 84.5919 319.675 84.2548 319.301 83.9552C319.001 83.5806 318.851 83.0937 318.851 82.4945C318.851 81.9702 318.964 81.2585 319.188 80.3597C319.863 77.2885 321.061 73.9178 322.784 70.2474C324.507 66.5021 326.492 62.7194 328.739 58.8992C330.986 55.079 333.121 51.5584 335.143 48.3374C335.443 47.9629 335.555 47.5884 335.48 47.2138C335.48 46.7644 335.518 46.3899 335.593 46.0903C335.967 44.4423 336.716 42.7195 337.84 40.9218C339.038 39.0491 340.349 37.2514 341.772 35.5285C343.271 33.8057 344.656 32.3825 345.93 31.2589C346.229 31.184 346.604 31.1465 347.053 31.1465C347.578 31.1465 348.102 31.1465 348.626 31.1465C350.124 31.1465 351.623 31.2964 353.121 31.596C354.694 31.8956 355.368 32.4949 355.143 33.3937C355.143 33.4686 354.806 33.8806 354.132 34.6297C353.533 35.3038 352.821 36.0903 351.997 36.9892C351.173 37.8881 350.387 38.7495 349.638 39.5734C348.963 40.3225 348.514 40.8468 348.289 41.1465C346.267 43.8431 344.02 46.8393 341.548 50.1352C339.076 53.431 336.604 56.8392 334.132 60.3598C331.66 63.8055 329.45 67.1763 327.503 70.4721C325.63 73.768 324.245 76.8017 323.346 79.5732C323.046 80.3222 322.896 80.9215 322.896 81.3709C322.896 81.6705 323.009 81.8203 323.233 81.8203C323.383 81.8203 323.833 81.6331 324.582 81.2585C325.256 80.8091 325.93 80.1724 326.604 79.3484C327.278 78.5245 327.877 77.8503 328.402 77.326C328.627 77.1013 328.814 76.9889 328.964 76.9889C329.338 76.9889 329.338 77.326 328.964 78.0001L327.503 80.2473C327.053 80.8466 326.492 81.7829 325.818 83.0563C325.143 84.2548 324.432 84.9289 323.683 85.0787C323.608 85.0787 323.421 85.1162 323.121 85.1911C322.896 85.1911 322.634 85.1911 322.334 85.1911ZM318.514 99.2359C317.765 99.2359 316.979 98.8614 316.155 98.1124C315.331 97.4382 314.844 96.5393 314.694 95.4157C314.694 95.2659 314.657 95.1536 314.582 95.0787C314.582 94.9289 314.582 94.8165 314.582 94.7416C314.582 94.3671 314.694 94.1049 314.919 93.9551C315.143 93.8053 315.481 93.618 315.93 93.3933C316.829 92.9439 317.578 92.5319 318.177 92.1573C318.851 91.7079 319.675 91.221 320.649 90.6967C320.949 90.5469 321.136 90.472 321.211 90.472C321.436 90.472 321.548 90.6592 321.548 91.0338C321.548 91.4083 321.473 91.8577 321.323 92.3821C321.173 92.9064 321.024 93.2435 320.874 93.3933C320.799 93.4682 320.574 93.8427 320.2 94.5169C319.825 95.1161 319.488 95.7903 319.188 96.5393C318.964 97.2135 318.926 97.7004 319.076 98C319.151 98.0749 319.188 98.1498 319.188 98.2247C319.188 98.3745 319.113 98.5618 318.964 98.7865C318.814 99.0861 318.664 99.2359 318.514 99.2359Z" fill="#FF5581"/>
</svg>
