<svg width="403" height="49" viewBox="0 0 403 49" fill="none" xmlns="http://www.w3.org/2000/svg">
<path d="M7.42259 29.8182H9.26705V36.4702C9.26705 37.1993 9.0947 37.8407 8.75 38.3942C8.40862 38.9477 7.92803 39.3802 7.30824 39.6918C6.68845 40 5.96425 40.1541 5.13565 40.1541C4.30374 40.1541 3.57789 40 2.9581 39.6918C2.33831 39.3802 1.85772 38.9477 1.51634 38.3942C1.17495 37.8407 1.00426 37.1993 1.00426 36.4702V29.8182H2.84872V36.3161C2.84872 36.7403 2.94152 37.1181 3.12713 37.4496C3.31605 37.781 3.5812 38.0412 3.92259 38.2301C4.26397 38.4157 4.66832 38.5085 5.13565 38.5085C5.60298 38.5085 6.00734 38.4157 6.34872 38.2301C6.69342 38.0412 6.95857 37.781 7.14418 37.4496C7.32978 37.1181 7.42259 36.7403 7.42259 36.3161V29.8182ZM17.2278 34.3821L15.5872 34.5611C15.5408 34.3954 15.4596 34.2396 15.3436 34.0938C15.2309 33.9479 15.0784 33.8303 14.8862 33.7408C14.694 33.6513 14.4586 33.6065 14.1802 33.6065C13.8057 33.6065 13.4908 33.6877 13.2356 33.8501C12.9837 34.0125 12.8594 34.223 12.8627 34.4815C12.8594 34.7036 12.9406 34.8842 13.1064 35.0234C13.2754 35.1626 13.5538 35.277 13.9416 35.3665L15.2441 35.6449C15.9667 35.8007 16.5036 36.0476 16.8549 36.3857C17.2096 36.7237 17.3886 37.1662 17.3919 37.7131C17.3886 38.1937 17.2477 38.6179 16.9693 38.9858C16.6942 39.3504 16.3114 39.6354 15.8208 39.8409C15.3303 40.0464 14.7669 40.1491 14.1305 40.1491C13.1958 40.1491 12.4435 39.9536 11.8734 39.5625C11.3033 39.1681 10.9636 38.6196 10.8542 37.9169L12.6092 37.7479C12.6887 38.0926 12.8578 38.3527 13.1163 38.5284C13.3748 38.7041 13.7112 38.7919 14.1255 38.7919C14.5531 38.7919 14.8961 38.7041 15.1547 38.5284C15.4165 38.3527 15.5474 38.1357 15.5474 37.8771C15.5474 37.6584 15.4629 37.4777 15.2939 37.3352C15.1281 37.1927 14.8696 37.0833 14.5183 37.0071L13.2157 36.7337C12.4833 36.5812 11.9413 36.3243 11.59 35.9631C11.2387 35.5985 11.0647 35.1378 11.068 34.581C11.0647 34.1103 11.1923 33.7027 11.4508 33.358C11.7127 33.0099 12.0756 32.7415 12.5396 32.5526C13.0069 32.3603 13.5455 32.2642 14.1554 32.2642C15.0502 32.2642 15.7546 32.4548 16.2683 32.8359C16.7853 33.2171 17.1052 33.7325 17.2278 34.3821ZM22.2566 40.1491C21.4909 40.1491 20.8297 39.9901 20.2729 39.6719C19.7194 39.3504 19.2935 38.8963 18.9952 38.3097C18.6969 37.7197 18.5478 37.0253 18.5478 36.2266C18.5478 35.4411 18.6969 34.7517 18.9952 34.1584C19.2968 33.5618 19.7177 33.0978 20.258 32.7663C20.7982 32.4316 21.4329 32.2642 22.1621 32.2642C22.6328 32.2642 23.0769 32.3404 23.4945 32.4929C23.9154 32.642 24.2866 32.8741 24.6081 33.1889C24.9329 33.5038 25.1882 33.9048 25.3738 34.392C25.5594 34.8759 25.6522 35.4527 25.6522 36.1222V36.674H19.3929V35.4609H23.927C23.9237 35.1162 23.8491 34.8097 23.7033 34.5412C23.5575 34.2694 23.3536 34.0556 23.0918 33.8999C22.8333 33.7441 22.5317 33.6662 22.187 33.6662C21.8191 33.6662 21.4959 33.7557 21.2175 33.9347C20.9391 34.1103 20.722 34.3423 20.5662 34.6307C20.4138 34.9157 20.3359 35.2289 20.3326 35.5703V36.6293C20.3326 37.0734 20.4138 37.4545 20.5762 37.7727C20.7386 38.0876 20.9656 38.3295 21.2573 38.4986C21.5489 38.6643 21.8903 38.7472 22.2814 38.7472C22.5433 38.7472 22.7802 38.7107 22.9924 38.6378C23.2045 38.5616 23.3884 38.4505 23.5442 38.3047C23.7 38.1589 23.8176 37.9782 23.8972 37.7628L25.5776 37.9517C25.4715 38.3958 25.2694 38.7836 24.9711 39.1151C24.6761 39.4432 24.2982 39.6984 23.8375 39.8807C23.3768 40.0597 22.8498 40.1491 22.2566 40.1491ZM34.4606 32.3636V33.7557H30.0707V32.3636H34.4606ZM31.1545 30.5341H32.9542V37.7031C32.9542 37.9451 32.9906 38.1307 33.0636 38.2599C33.1398 38.3859 33.2392 38.4721 33.3619 38.5185C33.4845 38.5649 33.6204 38.5881 33.7695 38.5881C33.8822 38.5881 33.985 38.5798 34.0778 38.5632C34.1739 38.5466 34.2468 38.5317 34.2965 38.5185L34.5998 39.9254C34.5037 39.9586 34.3661 39.995 34.1871 40.0348C34.0115 40.0746 33.796 40.0978 33.5408 40.1044C33.0901 40.1177 32.6841 40.0497 32.3228 39.9006C31.9615 39.7481 31.6748 39.5128 31.4627 39.1946C31.2539 38.8764 31.1512 38.4787 31.1545 38.0014V30.5341ZM37.9295 35.5256V40H36.1298V29.8182H37.8897V33.6612H37.9792C38.1582 33.2304 38.435 32.8906 38.8095 32.642C39.1873 32.3902 39.6679 32.2642 40.2512 32.2642C40.7815 32.2642 41.2439 32.3752 41.6383 32.5973C42.0327 32.8194 42.3377 33.1442 42.5531 33.5717C42.7718 33.9993 42.8812 34.5213 42.8812 35.1378V40H41.0815V35.4162C41.0815 34.9025 40.9489 34.5031 40.6838 34.218C40.4219 33.9297 40.054 33.7855 39.5801 33.7855C39.2619 33.7855 38.9769 33.8551 38.725 33.9943C38.4764 34.1302 38.2808 34.3274 38.1383 34.5859C37.9991 34.8445 37.9295 35.1577 37.9295 35.5256ZM48.0964 40.1491C47.3308 40.1491 46.6696 39.9901 46.1127 39.6719C45.5592 39.3504 45.1333 38.8963 44.835 38.3097C44.5368 37.7197 44.3876 37.0253 44.3876 36.2266C44.3876 35.4411 44.5368 34.7517 44.835 34.1584C45.1367 33.5618 45.5576 33.0978 46.0978 32.7663C46.6381 32.4316 47.2728 32.2642 48.002 32.2642C48.4726 32.2642 48.9167 32.3404 49.3343 32.4929C49.7553 32.642 50.1265 32.8741 50.448 33.1889C50.7728 33.5038 51.028 33.9048 51.2136 34.392C51.3992 34.8759 51.492 35.4527 51.492 36.1222V36.674H45.2328V35.4609H49.7669C49.7636 35.1162 49.689 34.8097 49.5431 34.5412C49.3973 34.2694 49.1935 34.0556 48.9316 33.8999C48.6731 33.7441 48.3715 33.6662 48.0268 33.6662C47.6589 33.6662 47.3358 33.7557 47.0574 33.9347C46.7789 34.1103 46.5618 34.3423 46.4061 34.6307C46.2536 34.9157 46.1757 35.2289 46.1724 35.5703V36.6293C46.1724 37.0734 46.2536 37.4545 46.416 37.7727C46.5784 38.0876 46.8055 38.3295 47.0971 38.4986C47.3888 38.6643 47.7302 38.7472 48.1213 38.7472C48.3831 38.7472 48.6201 38.7107 48.8322 38.6378C49.0443 38.5616 49.2283 38.4505 49.3841 38.3047C49.5398 38.1589 49.6575 37.9782 49.737 37.7628L51.4174 37.9517C51.3114 38.3958 51.1092 38.7836 50.8109 39.1151C50.5159 39.4432 50.1381 39.6984 49.6774 39.8807C49.2167 40.0597 48.6897 40.1491 48.0964 40.1491ZM61.3544 36.7884V32.3636H63.1541V40H61.4091V38.6428H61.3295C61.1572 39.0703 60.8738 39.42 60.4794 39.6918C60.0883 39.9635 59.6061 40.0994 59.0327 40.0994C58.5322 40.0994 58.0897 39.9884 57.7053 39.7663C57.3241 39.541 57.0258 39.2145 56.8104 38.7869C56.5949 38.3561 56.4872 37.8357 56.4872 37.2259V32.3636H58.2869V36.9474C58.2869 37.4313 58.4195 37.8158 58.6847 38.1009C58.9498 38.3859 59.2978 38.5284 59.7287 38.5284C59.9938 38.5284 60.2507 38.4638 60.4993 38.3345C60.7479 38.2053 60.9517 38.013 61.1108 37.7578C61.2732 37.4993 61.3544 37.1761 61.3544 36.7884ZM65.0048 42.8636V32.3636H66.7747V33.6264H66.8791C66.9719 33.4408 67.1028 33.2436 67.2718 33.0348C67.4409 32.8227 67.6696 32.642 67.9579 32.4929C68.2463 32.3404 68.6142 32.2642 69.0616 32.2642C69.6516 32.2642 70.1835 32.415 70.6575 32.7166C71.1348 33.0149 71.5126 33.4574 71.791 34.044C72.0727 34.6274 72.2136 35.3433 72.2136 36.1918C72.2136 37.0303 72.0761 37.7429 71.801 38.3295C71.5259 38.9162 71.1513 39.3636 70.6774 39.6719C70.2034 39.9801 69.6665 40.1342 69.0666 40.1342C68.6291 40.1342 68.2662 40.0613 67.9778 39.9155C67.6895 39.7696 67.4574 39.594 67.2818 39.3885C67.1094 39.1797 66.9752 38.9825 66.8791 38.7969H66.8045V42.8636H65.0048ZM66.7697 36.1818C66.7697 36.6757 66.8393 37.1082 66.9785 37.4794C67.121 37.8506 67.3249 38.1406 67.59 38.3494C67.8585 38.5549 68.1833 38.6577 68.5645 38.6577C68.9622 38.6577 69.2953 38.5516 69.5637 38.3395C69.8322 38.1241 70.0344 37.8307 70.1703 37.4595C70.3095 37.085 70.3791 36.6591 70.3791 36.1818C70.3791 35.7079 70.3111 35.2869 70.1752 34.919C70.0394 34.5511 69.8372 34.2628 69.5687 34.054C69.3002 33.8452 68.9655 33.7408 68.5645 33.7408C68.18 33.7408 67.8535 33.8419 67.585 34.044C67.3166 34.2462 67.1127 34.5296 66.9735 34.8942C66.8377 35.2588 66.7697 35.688 66.7697 36.1818ZM110.679 40.1541C110.195 40.1541 109.759 40.0679 109.371 39.8956C108.987 39.7199 108.682 39.4614 108.456 39.12C108.234 38.7786 108.123 38.3577 108.123 37.8572C108.123 37.4264 108.203 37.0701 108.362 36.7884C108.521 36.5066 108.738 36.2812 109.013 36.1122C109.288 35.9432 109.598 35.8156 109.943 35.7294C110.291 35.6399 110.651 35.5753 111.022 35.5355C111.469 35.4891 111.832 35.4477 112.111 35.4112C112.389 35.3714 112.591 35.3118 112.717 35.2322C112.846 35.1494 112.911 35.0218 112.911 34.8494V34.8196C112.911 34.4451 112.8 34.1551 112.578 33.9496C112.356 33.7441 112.036 33.6413 111.618 33.6413C111.178 33.6413 110.828 33.7375 110.569 33.9297C110.314 34.1219 110.142 34.349 110.052 34.6108L108.372 34.3722C108.505 33.9081 108.723 33.5204 109.028 33.2088C109.333 32.8939 109.706 32.6586 110.147 32.5028C110.588 32.3438 111.075 32.2642 111.608 32.2642C111.976 32.2642 112.343 32.3073 112.707 32.3935C113.072 32.4796 113.405 32.6222 113.706 32.821C114.008 33.0166 114.25 33.2834 114.432 33.6214C114.618 33.9595 114.711 34.3821 114.711 34.8892V40H112.981V38.951H112.921C112.812 39.1631 112.657 39.362 112.459 39.5476C112.263 39.7299 112.016 39.8774 111.718 39.9901C111.423 40.0994 111.077 40.1541 110.679 40.1541ZM111.146 38.8317C111.507 38.8317 111.821 38.7604 112.086 38.6179C112.351 38.4721 112.555 38.2798 112.697 38.0412C112.843 37.8026 112.916 37.5424 112.916 37.2607V36.3608C112.86 36.4072 112.764 36.4503 112.628 36.4901C112.495 36.5298 112.346 36.5646 112.18 36.5945C112.015 36.6243 111.85 36.6508 111.688 36.674C111.526 36.6972 111.385 36.7171 111.265 36.7337C110.997 36.7701 110.757 36.8298 110.545 36.9126C110.332 36.9955 110.165 37.1115 110.042 37.2607C109.92 37.4065 109.858 37.5954 109.858 37.8274C109.858 38.1589 109.979 38.4091 110.221 38.5781C110.463 38.7472 110.772 38.8317 111.146 38.8317ZM118.32 35.5256V40H116.52V32.3636H118.241V33.6612H118.33C118.506 33.2337 118.786 32.8939 119.17 32.642C119.558 32.3902 120.037 32.2642 120.607 32.2642C121.134 32.2642 121.593 32.3769 121.984 32.6023C122.379 32.8277 122.684 33.1541 122.899 33.5817C123.118 34.0092 123.225 34.5279 123.222 35.1378V40H121.422V35.4162C121.422 34.9058 121.29 34.5064 121.025 34.218C120.763 33.9297 120.4 33.7855 119.936 33.7855C119.621 33.7855 119.341 33.8551 119.096 33.9943C118.854 34.1302 118.663 34.3274 118.524 34.5859C118.388 34.8445 118.32 35.1577 118.32 35.5256ZM127.885 40.1342C127.286 40.1342 126.749 39.9801 126.275 39.6719C125.801 39.3636 125.426 38.9162 125.151 38.3295C124.876 37.7429 124.738 37.0303 124.738 36.1918C124.738 35.3433 124.878 34.6274 125.156 34.044C125.438 33.4574 125.817 33.0149 126.295 32.7166C126.772 32.415 127.304 32.2642 127.89 32.2642C128.338 32.2642 128.706 32.3404 128.994 32.4929C129.282 32.642 129.511 32.8227 129.68 33.0348C129.849 33.2436 129.98 33.4408 130.073 33.6264H130.148V29.8182H131.952V40H130.182V38.7969H130.073C129.98 38.9825 129.846 39.1797 129.67 39.3885C129.495 39.594 129.263 39.7696 128.974 39.9155C128.686 40.0613 128.323 40.1342 127.885 40.1342ZM128.388 38.6577C128.769 38.6577 129.094 38.5549 129.362 38.3494C129.631 38.1406 129.834 37.8506 129.974 37.4794C130.113 37.1082 130.182 36.6757 130.182 36.1818C130.182 35.688 130.113 35.2588 129.974 34.8942C129.838 34.5296 129.635 34.2462 129.367 34.044C129.102 33.8419 128.775 33.7408 128.388 33.7408C127.987 33.7408 127.652 33.8452 127.383 34.054C127.115 34.2628 126.913 34.5511 126.777 34.919C126.641 35.2869 126.573 35.7079 126.573 36.1818C126.573 36.6591 126.641 37.085 126.777 37.4595C126.916 37.8307 127.12 38.1241 127.388 38.3395C127.66 38.5516 127.993 38.6577 128.388 38.6577ZM140.176 40.1342C139.577 40.1342 139.04 39.9801 138.566 39.6719C138.092 39.3636 137.717 38.9162 137.442 38.3295C137.167 37.7429 137.029 37.0303 137.029 36.1918C137.029 35.3433 137.169 34.6274 137.447 34.044C137.729 33.4574 138.108 33.0149 138.586 32.7166C139.063 32.415 139.595 32.2642 140.181 32.2642C140.629 32.2642 140.997 32.3404 141.285 32.4929C141.574 32.642 141.802 32.8227 141.971 33.0348C142.14 33.2436 142.271 33.4408 142.364 33.6264H142.439V29.8182H144.243V40H142.473V38.7969H142.364C142.271 38.9825 142.137 39.1797 141.961 39.3885C141.786 39.594 141.554 39.7696 141.265 39.9155C140.977 40.0613 140.614 40.1342 140.176 40.1342ZM140.679 38.6577C141.06 38.6577 141.385 38.5549 141.653 38.3494C141.922 38.1406 142.125 37.8506 142.265 37.4794C142.404 37.1082 142.473 36.6757 142.473 36.1818C142.473 35.688 142.404 35.2588 142.265 34.8942C142.129 34.5296 141.926 34.2462 141.658 34.044C141.393 33.8419 141.066 33.7408 140.679 33.7408C140.278 33.7408 139.943 33.8452 139.674 34.054C139.406 34.2628 139.204 34.5511 139.068 34.919C138.932 35.2869 138.864 35.7079 138.864 36.1818C138.864 36.6591 138.932 37.085 139.068 37.4595C139.207 37.8307 139.411 38.1241 139.679 38.3395C139.951 38.5516 140.284 38.6577 140.679 38.6577ZM149.492 40.1491C148.746 40.1491 148.1 39.9851 147.553 39.657C147.006 39.3288 146.582 38.8698 146.28 38.2798C145.982 37.6899 145.833 37.0005 145.833 36.2116C145.833 35.4228 145.982 34.7318 146.28 34.1385C146.582 33.5452 147.006 33.0845 147.553 32.7564C148.1 32.4283 148.746 32.2642 149.492 32.2642C150.238 32.2642 150.884 32.4283 151.431 32.7564C151.978 33.0845 152.4 33.5452 152.699 34.1385C153 34.7318 153.151 35.4228 153.151 36.2116C153.151 37.0005 153 37.6899 152.699 38.2798C152.4 38.8698 151.978 39.3288 151.431 39.657C150.884 39.9851 150.238 40.1491 149.492 40.1491ZM149.502 38.7074C149.906 38.7074 150.244 38.5964 150.516 38.3743C150.788 38.1489 150.99 37.8473 151.123 37.4695C151.259 37.0916 151.327 36.6707 151.327 36.2067C151.327 35.7393 151.259 35.3168 151.123 34.9389C150.99 34.5578 150.788 34.2545 150.516 34.0291C150.244 33.8037 149.906 33.6911 149.502 33.6911C149.088 33.6911 148.743 33.8037 148.468 34.0291C148.196 34.2545 147.992 34.5578 147.856 34.9389C147.724 35.3168 147.657 35.7393 147.657 36.2067C147.657 36.6707 147.724 37.0916 147.856 37.4695C147.992 37.8473 148.196 38.1489 148.468 38.3743C148.743 38.5964 149.088 38.7074 149.502 38.7074ZM156.036 40L153.878 32.3636H155.713L157.055 37.733H157.125L158.497 32.3636H160.311L161.684 37.7031H161.758L163.081 32.3636H164.92L162.757 40H160.883L159.451 34.8395H159.347L157.915 40H156.036ZM167.976 35.5256V40H166.177V32.3636H167.897V33.6612H167.986C168.162 33.2337 168.442 32.8939 168.827 32.642C169.214 32.3902 169.693 32.2642 170.263 32.2642C170.79 32.2642 171.249 32.3769 171.64 32.6023C172.035 32.8277 172.34 33.1541 172.555 33.5817C172.774 34.0092 172.882 34.5279 172.878 35.1378V40H171.079V35.4162C171.079 34.9058 170.946 34.5064 170.681 34.218C170.419 33.9297 170.056 33.7855 169.592 33.7855C169.277 33.7855 168.997 33.8551 168.752 33.9943C168.51 34.1302 168.319 34.3274 168.18 34.5859C168.044 34.8445 167.976 35.1577 167.976 35.5256ZM211.075 37.6037L211.07 35.4311H211.358L214.103 32.3636H216.206L212.83 36.1222H212.457L211.075 37.6037ZM209.434 40V29.8182H211.234V40H209.434ZM214.227 40L211.741 36.5249L212.954 35.2571L216.38 40H214.227ZM220.471 40.1491C219.706 40.1491 219.045 39.9901 218.488 39.6719C217.934 39.3504 217.508 38.8963 217.21 38.3097C216.912 37.7197 216.763 37.0253 216.763 36.2266C216.763 35.4411 216.912 34.7517 217.21 34.1584C217.512 33.5618 217.933 33.0978 218.473 32.7663C219.013 32.4316 219.648 32.2642 220.377 32.2642C220.848 32.2642 221.292 32.3404 221.709 32.4929C222.13 32.642 222.501 32.8741 222.823 33.1889C223.148 33.5038 223.403 33.9048 223.589 34.392C223.774 34.8759 223.867 35.4527 223.867 36.1222V36.674H217.608V35.4609H222.142C222.139 35.1162 222.064 34.8097 221.918 34.5412C221.772 34.2694 221.568 34.0556 221.307 33.8999C221.048 33.7441 220.747 33.6662 220.402 33.6662C220.034 33.6662 219.711 33.7557 219.432 33.9347C219.154 34.1103 218.937 34.3423 218.781 34.6307C218.629 34.9157 218.551 35.2289 218.547 35.5703V36.6293C218.547 37.0734 218.629 37.4545 218.791 37.7727C218.953 38.0876 219.18 38.3295 219.472 38.4986C219.764 38.6643 220.105 38.7472 220.496 38.7472C220.758 38.7472 220.995 38.7107 221.207 38.6378C221.419 38.5616 221.603 38.4505 221.759 38.3047C221.915 38.1589 222.032 37.9782 222.112 37.7628L223.792 37.9517C223.686 38.3958 223.484 38.7836 223.186 39.1151C222.891 39.4432 222.513 39.6984 222.052 39.8807C221.592 40.0597 221.065 40.1491 220.471 40.1491ZM226.289 42.8636C226.044 42.8636 225.817 42.8438 225.608 42.804C225.403 42.7675 225.239 42.7244 225.116 42.6747L225.534 41.2727C225.796 41.349 226.029 41.3854 226.235 41.3821C226.44 41.3788 226.621 41.3142 226.777 41.1882C226.936 41.0656 227.07 40.8601 227.179 40.5717L227.333 40.1591L224.564 32.3636H226.473L228.233 38.1307H228.313L230.078 32.3636H231.992L228.934 40.9247C228.792 41.3291 228.603 41.6754 228.368 41.9638C228.132 42.2554 227.844 42.4775 227.502 42.63C227.164 42.7857 226.76 42.8636 226.289 42.8636ZM239.273 34.3821L237.632 34.5611C237.586 34.3954 237.504 34.2396 237.388 34.0938C237.276 33.9479 237.123 33.8303 236.931 33.7408C236.739 33.6513 236.504 33.6065 236.225 33.6065C235.851 33.6065 235.536 33.6877 235.281 33.8501C235.029 34.0125 234.904 34.223 234.908 34.4815C234.904 34.7036 234.986 34.8842 235.151 35.0234C235.32 35.1626 235.599 35.277 235.987 35.3665L237.289 35.6449C238.012 35.8007 238.549 36.0476 238.9 36.3857C239.254 36.7237 239.433 37.1662 239.437 37.7131C239.433 38.1937 239.293 38.6179 239.014 38.9858C238.739 39.3504 238.356 39.6354 237.866 39.8409C237.375 40.0464 236.812 40.1491 236.175 40.1491C235.241 40.1491 234.488 39.9536 233.918 39.5625C233.348 39.1681 233.009 38.6196 232.899 37.9169L234.654 37.7479C234.734 38.0926 234.903 38.3527 235.161 38.5284C235.42 38.7041 235.756 38.7919 236.17 38.7919C236.598 38.7919 236.941 38.7041 237.2 38.5284C237.461 38.3527 237.592 38.1357 237.592 37.8771C237.592 37.6584 237.508 37.4777 237.339 37.3352C237.173 37.1927 236.915 37.0833 236.563 37.0071L235.261 36.7337C234.528 36.5812 233.986 36.3243 233.635 35.9631C233.284 35.5985 233.11 35.1378 233.113 34.581C233.11 34.1103 233.237 33.7027 233.496 33.358C233.758 33.0099 234.121 32.7415 234.585 32.5526C235.052 32.3603 235.59 32.2642 236.2 32.2642C237.095 32.2642 237.799 32.4548 238.313 32.8359C238.83 33.2171 239.15 33.7325 239.273 34.3821ZM248.207 32.3636V33.7557H243.817V32.3636H248.207ZM244.901 30.5341H246.7V37.7031C246.7 37.9451 246.737 38.1307 246.81 38.2599C246.886 38.3859 246.985 38.4721 247.108 38.5185C247.231 38.5649 247.366 38.5881 247.516 38.5881C247.628 38.5881 247.731 38.5798 247.824 38.5632C247.92 38.5466 247.993 38.5317 248.043 38.5185L248.346 39.9254C248.25 39.9586 248.112 39.995 247.933 40.0348C247.758 40.0746 247.542 40.0978 247.287 40.1044C246.836 40.1177 246.43 40.0497 246.069 39.9006C245.708 39.7481 245.421 39.5128 245.209 39.1946C245 38.8764 244.897 38.4787 244.901 38.0014V30.5341ZM252.961 40.1491C252.215 40.1491 251.569 39.9851 251.022 39.657C250.475 39.3288 250.051 38.8698 249.749 38.2798C249.451 37.6899 249.302 37.0005 249.302 36.2116C249.302 35.4228 249.451 34.7318 249.749 34.1385C250.051 33.5452 250.475 33.0845 251.022 32.7564C251.569 32.4283 252.215 32.2642 252.961 32.2642C253.706 32.2642 254.353 32.4283 254.9 32.7564C255.447 33.0845 255.869 33.5452 256.167 34.1385C256.469 34.7318 256.62 35.4228 256.62 36.2116C256.62 37.0005 256.469 37.6899 256.167 38.2798C255.869 38.8698 255.447 39.3288 254.9 39.657C254.353 39.9851 253.706 40.1491 252.961 40.1491ZM252.971 38.7074C253.375 38.7074 253.713 38.5964 253.985 38.3743C254.257 38.1489 254.459 37.8473 254.591 37.4695C254.727 37.0916 254.795 36.6707 254.795 36.2067C254.795 35.7393 254.727 35.3168 254.591 34.9389C254.459 34.5578 254.257 34.2545 253.985 34.0291C253.713 33.8037 253.375 33.6911 252.971 33.6911C252.556 33.6911 252.212 33.8037 251.937 34.0291C251.665 34.2545 251.461 34.5578 251.325 34.9389C251.193 35.3168 251.126 35.7393 251.126 36.2067C251.126 36.6707 251.193 37.0916 251.325 37.4695C251.461 37.8473 251.665 38.1489 251.937 38.3743C252.212 38.5964 252.556 38.7074 252.971 38.7074ZM264.454 40.1342C263.854 40.1342 263.317 39.9801 262.843 39.6719C262.369 39.3636 261.995 38.9162 261.719 38.3295C261.444 37.7429 261.307 37.0303 261.307 36.1918C261.307 35.3433 261.446 34.6274 261.724 34.044C262.006 33.4574 262.386 33.0149 262.863 32.7166C263.34 32.415 263.872 32.2642 264.459 32.2642C264.906 32.2642 265.274 32.3404 265.562 32.4929C265.851 32.642 266.08 32.8227 266.249 33.0348C266.418 33.2436 266.549 33.4408 266.641 33.6264H266.716V29.8182H268.521V40H266.751V38.7969H266.641C266.549 38.9825 266.414 39.1797 266.239 39.3885C266.063 39.594 265.831 39.7696 265.543 39.9155C265.254 40.0613 264.891 40.1342 264.454 40.1342ZM264.956 38.6577C265.337 38.6577 265.662 38.5549 265.93 38.3494C266.199 38.1406 266.403 37.8506 266.542 37.4794C266.681 37.1082 266.751 36.6757 266.751 36.1818C266.751 35.688 266.681 35.2588 266.542 34.8942C266.406 34.5296 266.204 34.2462 265.935 34.044C265.67 33.8419 265.344 33.7408 264.956 33.7408C264.555 33.7408 264.22 33.8452 263.952 34.054C263.683 34.2628 263.481 34.5511 263.345 34.919C263.209 35.2869 263.141 35.7079 263.141 36.1818C263.141 36.6591 263.209 37.085 263.345 37.4595C263.484 37.8307 263.688 38.1241 263.957 38.3395C264.228 38.5516 264.562 38.6577 264.956 38.6577ZM273.769 40.1491C273.024 40.1491 272.377 39.9851 271.83 39.657C271.284 39.3288 270.859 38.8698 270.558 38.2798C270.259 37.6899 270.11 37.0005 270.11 36.2116C270.11 35.4228 270.259 34.7318 270.558 34.1385C270.859 33.5452 271.284 33.0845 271.83 32.7564C272.377 32.4283 273.024 32.2642 273.769 32.2642C274.515 32.2642 275.161 32.4283 275.708 32.7564C276.255 33.0845 276.678 33.5452 276.976 34.1385C277.278 34.7318 277.428 35.4228 277.428 36.2116C277.428 37.0005 277.278 37.6899 276.976 38.2798C276.678 38.8698 276.255 39.3288 275.708 39.657C275.161 39.9851 274.515 40.1491 273.769 40.1491ZM273.779 38.7074C274.184 38.7074 274.522 38.5964 274.794 38.3743C275.065 38.1489 275.267 37.8473 275.4 37.4695C275.536 37.0916 275.604 36.6707 275.604 36.2067C275.604 35.7393 275.536 35.3168 275.4 34.9389C275.267 34.5578 275.065 34.2545 274.794 34.0291C274.522 33.8037 274.184 33.6911 273.779 33.6911C273.365 33.6911 273.02 33.8037 272.745 34.0291C272.473 34.2545 272.27 34.5578 272.134 34.9389C272.001 35.3168 271.935 35.7393 271.935 36.2067C271.935 36.6707 272.001 37.0916 272.134 37.4695C272.27 37.8473 272.473 38.1489 272.745 38.3743C273.02 38.5964 273.365 38.7074 273.779 38.7074ZM281.79 40.1342C281.19 40.1342 280.653 39.9801 280.179 39.6719C279.705 39.3636 279.33 38.9162 279.055 38.3295C278.78 37.7429 278.643 37.0303 278.643 36.1918C278.643 35.3433 278.782 34.6274 279.06 34.044C279.342 33.4574 279.722 33.0149 280.199 32.7166C280.676 32.415 281.208 32.2642 281.795 32.2642C282.242 32.2642 282.61 32.3404 282.898 32.4929C283.187 32.642 283.415 32.8227 283.585 33.0348C283.754 33.2436 283.884 33.4408 283.977 33.6264H284.052V29.8182H285.857V40H284.087V38.7969H283.977C283.884 38.9825 283.75 39.1797 283.575 39.3885C283.399 39.594 283.167 39.7696 282.879 39.9155C282.59 40.0613 282.227 40.1342 281.79 40.1342ZM282.292 38.6577C282.673 38.6577 282.998 38.5549 283.266 38.3494C283.535 38.1406 283.739 37.8506 283.878 37.4794C284.017 37.1082 284.087 36.6757 284.087 36.1818C284.087 35.688 284.017 35.2588 283.878 34.8942C283.742 34.5296 283.54 34.2462 283.271 34.044C283.006 33.8419 282.68 33.7408 282.292 33.7408C281.891 33.7408 281.556 33.8452 281.288 34.054C281.019 34.2628 280.817 34.5511 280.681 34.919C280.545 35.2869 280.477 35.7079 280.477 36.1818C280.477 36.6591 280.545 37.085 280.681 37.4595C280.82 37.8307 281.024 38.1241 281.293 38.3395C281.564 38.5516 281.897 38.6577 282.292 38.6577ZM291.095 43.0227C290.449 43.0227 289.894 42.9349 289.43 42.7592C288.966 42.5869 288.593 42.3549 288.311 42.0632C288.03 41.7715 287.834 41.4484 287.725 41.0938L289.345 40.701C289.418 40.8501 289.524 40.9976 289.664 41.1435C289.803 41.2926 289.99 41.4152 290.225 41.5114C290.464 41.6108 290.764 41.6605 291.125 41.6605C291.636 41.6605 292.058 41.5362 292.393 41.2876C292.728 41.0424 292.895 40.638 292.895 40.0746V38.6278H292.806C292.713 38.8134 292.577 39.004 292.398 39.1996C292.222 39.3951 291.989 39.5592 291.697 39.6918C291.409 39.8243 291.046 39.8906 290.608 39.8906C290.021 39.8906 289.49 39.7531 289.012 39.478C288.538 39.1996 288.16 38.7853 287.879 38.2351C287.6 37.6816 287.461 36.9889 287.461 36.157C287.461 35.3184 287.6 34.6108 287.879 34.0341C288.16 33.4541 288.54 33.0149 289.017 32.7166C289.494 32.415 290.026 32.2642 290.613 32.2642C291.061 32.2642 291.428 32.3404 291.717 32.4929C292.008 32.642 292.24 32.8227 292.413 33.0348C292.585 33.2436 292.716 33.4408 292.806 33.6264H292.905V32.3636H294.68V40.1243C294.68 40.7772 294.524 41.3175 294.213 41.745C293.901 42.1726 293.475 42.4924 292.935 42.7045C292.395 42.9167 291.781 43.0227 291.095 43.0227ZM291.11 38.4787C291.491 38.4787 291.816 38.3859 292.085 38.2003C292.353 38.0147 292.557 37.7479 292.696 37.3999C292.835 37.0518 292.905 36.6342 292.905 36.147C292.905 35.6664 292.835 35.2455 292.696 34.8842C292.56 34.523 292.358 34.2429 292.09 34.044C291.825 33.8419 291.498 33.7408 291.11 33.7408C290.709 33.7408 290.374 33.8452 290.106 34.054C289.838 34.2628 289.635 34.5495 289.499 34.9141C289.364 35.2753 289.296 35.6863 289.296 36.147C289.296 36.6143 289.364 37.0237 289.499 37.375C289.639 37.723 289.843 37.9948 290.111 38.1903C290.383 38.3826 290.716 38.4787 291.11 38.4787ZM299.905 40.1491C299.139 40.1491 298.478 39.9901 297.921 39.6719C297.368 39.3504 296.942 38.8963 296.644 38.3097C296.345 37.7197 296.196 37.0253 296.196 36.2266C296.196 35.4411 296.345 34.7517 296.644 34.1584C296.945 33.5618 297.366 33.0978 297.906 32.7663C298.447 32.4316 299.081 32.2642 299.811 32.2642C300.281 32.2642 300.725 32.3404 301.143 32.4929C301.564 32.642 301.935 32.8741 302.257 33.1889C302.581 33.5038 302.837 33.9048 303.022 34.392C303.208 34.8759 303.301 35.4527 303.301 36.1222V36.674H297.041V35.4609H301.575C301.572 35.1162 301.498 34.8097 301.352 34.5412C301.206 34.2694 301.002 34.0556 300.74 33.8999C300.482 33.7441 300.18 33.6662 299.835 33.6662C299.468 33.6662 299.144 33.7557 298.866 33.9347C298.588 34.1103 298.37 34.3423 298.215 34.6307C298.062 34.9157 297.984 35.2289 297.981 35.5703V36.6293C297.981 37.0734 298.062 37.4545 298.225 37.7727C298.387 38.0876 298.614 38.3295 298.906 38.4986C299.197 38.6643 299.539 38.7472 299.93 38.7472C300.192 38.7472 300.429 38.7107 300.641 38.6378C300.853 38.5616 301.037 38.4505 301.193 38.3047C301.348 38.1589 301.466 37.9782 301.546 37.7628L303.226 37.9517C303.12 38.3958 302.918 38.7836 302.619 39.1151C302.325 39.4432 301.947 39.6984 301.486 39.8807C301.025 40.0597 300.498 40.1491 299.905 40.1491ZM312.109 32.3636V33.7557H307.719V32.3636H312.109ZM308.803 30.5341H310.603V37.7031C310.603 37.9451 310.639 38.1307 310.712 38.2599C310.788 38.3859 310.888 38.4721 311.01 38.5185C311.133 38.5649 311.269 38.5881 311.418 38.5881C311.531 38.5881 311.633 38.5798 311.726 38.5632C311.822 38.5466 311.895 38.5317 311.945 38.5185L312.248 39.9254C312.152 39.9586 312.015 39.995 311.836 40.0348C311.66 40.0746 311.444 40.0978 311.189 40.1044C310.739 40.1177 310.333 40.0497 309.971 39.9006C309.61 39.7481 309.323 39.5128 309.111 39.1946C308.902 38.8764 308.8 38.4787 308.803 38.0014V30.5341ZM315.578 35.5256V40H313.778V29.8182H315.538V33.6612H315.628C315.807 33.2304 316.083 32.8906 316.458 32.642C316.836 32.3902 317.316 32.2642 317.9 32.2642C318.43 32.2642 318.892 32.3752 319.287 32.5973C319.681 32.8194 319.986 33.1442 320.202 33.5717C320.42 33.9993 320.53 34.5213 320.53 35.1378V40H318.73V35.4162C318.73 34.9025 318.597 34.5031 318.332 34.218C318.07 33.9297 317.702 33.7855 317.229 33.7855C316.91 33.7855 316.625 33.8551 316.373 33.9943C316.125 34.1302 315.929 34.3274 315.787 34.5859C315.648 34.8445 315.578 35.1577 315.578 35.5256ZM325.745 40.1491C324.979 40.1491 324.318 39.9901 323.761 39.6719C323.208 39.3504 322.782 38.8963 322.483 38.3097C322.185 37.7197 322.036 37.0253 322.036 36.2266C322.036 35.4411 322.185 34.7517 322.483 34.1584C322.785 33.5618 323.206 33.0978 323.746 32.7663C324.287 32.4316 324.921 32.2642 325.65 32.2642C326.121 32.2642 326.565 32.3404 326.983 32.4929C327.404 32.642 327.775 32.8741 328.096 33.1889C328.421 33.5038 328.676 33.9048 328.862 34.392C329.048 34.8759 329.14 35.4527 329.14 36.1222V36.674H322.881V35.4609H327.415C327.412 35.1162 327.337 34.8097 327.192 34.5412C327.046 34.2694 326.842 34.0556 326.58 33.8999C326.322 33.7441 326.02 33.6662 325.675 33.6662C325.307 33.6662 324.984 33.7557 324.706 33.9347C324.427 34.1103 324.21 34.3423 324.055 34.6307C323.902 34.9157 323.824 35.2289 323.821 35.5703V36.6293C323.821 37.0734 323.902 37.4545 324.064 37.7727C324.227 38.0876 324.454 38.3295 324.746 38.4986C325.037 38.6643 325.379 38.7472 325.77 38.7472C326.032 38.7472 326.269 38.7107 326.481 38.6378C326.693 38.5616 326.877 38.4505 327.032 38.3047C327.188 38.1589 327.306 37.9782 327.385 37.7628L329.066 37.9517C328.96 38.3958 328.758 38.7836 328.459 39.1151C328.164 39.4432 327.787 39.6984 327.326 39.8807C326.865 40.0597 326.338 40.1491 325.745 40.1491ZM337.516 40.1491C336.751 40.1491 336.089 39.9901 335.533 39.6719C334.979 39.3504 334.553 38.8963 334.255 38.3097C333.957 37.7197 333.808 37.0253 333.808 36.2266C333.808 35.4411 333.957 34.7517 334.255 34.1584C334.557 33.5618 334.978 33.0978 335.518 32.7663C336.058 32.4316 336.693 32.2642 337.422 32.2642C337.893 32.2642 338.337 32.3404 338.754 32.4929C339.175 32.642 339.546 32.8741 339.868 33.1889C340.193 33.5038 340.448 33.9048 340.634 34.392C340.819 34.8759 340.912 35.4527 340.912 36.1222V36.674H334.653V35.4609H339.187C339.183 35.1162 339.109 34.8097 338.963 34.5412C338.817 34.2694 338.613 34.0556 338.352 33.8999C338.093 33.7441 337.791 33.6662 337.447 33.6662C337.079 33.6662 336.756 33.7557 336.477 33.9347C336.199 34.1103 335.982 34.3423 335.826 34.6307C335.674 34.9157 335.596 35.2289 335.592 35.5703V36.6293C335.592 37.0734 335.674 37.4545 335.836 37.7727C335.998 38.0876 336.225 38.3295 336.517 38.4986C336.809 38.6643 337.15 38.7472 337.541 38.7472C337.803 38.7472 338.04 38.7107 338.252 38.6378C338.464 38.5616 338.648 38.4505 338.804 38.3047C338.96 38.1589 339.077 37.9782 339.157 37.7628L340.837 37.9517C340.731 38.3958 340.529 38.7836 340.231 39.1151C339.936 39.4432 339.558 39.6984 339.097 39.8807C338.637 40.0597 338.11 40.1491 337.516 40.1491ZM344.234 35.5256V40H342.434V32.3636H344.155V33.6612H344.244C344.42 33.2337 344.7 32.8939 345.084 32.642C345.472 32.3902 345.951 32.2642 346.521 32.2642C347.048 32.2642 347.507 32.3769 347.898 32.6023C348.293 32.8277 348.598 33.1541 348.813 33.5817C349.032 34.0092 349.14 34.5279 349.136 35.1378V40H347.336V35.4162C347.336 34.9058 347.204 34.5064 346.939 34.218C346.677 33.9297 346.314 33.7855 345.85 33.7855C345.535 33.7855 345.255 33.8551 345.01 33.9943C344.768 34.1302 344.577 34.3274 344.438 34.5859C344.302 34.8445 344.234 35.1577 344.234 35.5256ZM357.513 32.3636L354.794 40H352.805L350.086 32.3636H352.005L353.76 38.0362H353.839L355.599 32.3636H357.513ZM361.88 40.1491C361.114 40.1491 360.453 39.9901 359.896 39.6719C359.342 39.3504 358.917 38.8963 358.618 38.3097C358.32 37.7197 358.171 37.0253 358.171 36.2266C358.171 35.4411 358.32 34.7517 358.618 34.1584C358.92 33.5618 359.341 33.0978 359.881 32.7663C360.421 32.4316 361.056 32.2642 361.785 32.2642C362.256 32.2642 362.7 32.3404 363.118 32.4929C363.538 32.642 363.91 32.8741 364.231 33.1889C364.556 33.5038 364.811 33.9048 364.997 34.392C365.182 34.8759 365.275 35.4527 365.275 36.1222V36.674H359.016V35.4609H363.55C363.547 35.1162 363.472 34.8097 363.326 34.5412C363.181 34.2694 362.977 34.0556 362.715 33.8999C362.456 33.7441 362.155 33.6662 361.81 33.6662C361.442 33.6662 361.119 33.7557 360.841 33.9347C360.562 34.1103 360.345 34.3423 360.189 34.6307C360.037 34.9157 359.959 35.2289 359.956 35.5703V36.6293C359.956 37.0734 360.037 37.4545 360.199 37.7727C360.362 38.0876 360.589 38.3295 360.88 38.4986C361.172 38.6643 361.513 38.7472 361.904 38.7472C362.166 38.7472 362.403 38.7107 362.615 38.6378C362.828 38.5616 363.011 38.4505 363.167 38.3047C363.323 38.1589 363.441 37.9782 363.52 37.7628L365.201 37.9517C365.095 38.3958 364.892 38.7836 364.594 39.1151C364.299 39.4432 363.921 39.6984 363.461 39.8807C363 40.0597 362.473 40.1491 361.88 40.1491ZM368.597 29.8182V40H366.798V29.8182H368.597ZM373.779 40.1491C373.033 40.1491 372.387 39.9851 371.84 39.657C371.293 39.3288 370.869 38.8698 370.567 38.2798C370.269 37.6899 370.12 37.0005 370.12 36.2116C370.12 35.4228 370.269 34.7318 370.567 34.1385C370.869 33.5452 371.293 33.0845 371.84 32.7564C372.387 32.4283 373.033 32.2642 373.779 32.2642C374.525 32.2642 375.171 32.4283 375.718 32.7564C376.265 33.0845 376.688 33.5452 376.986 34.1385C377.287 34.7318 377.438 35.4228 377.438 36.2116C377.438 37.0005 377.287 37.6899 376.986 38.2798C376.688 38.8698 376.265 39.3288 375.718 39.657C375.171 39.9851 374.525 40.1491 373.779 40.1491ZM373.789 38.7074C374.193 38.7074 374.531 38.5964 374.803 38.3743C375.075 38.1489 375.277 37.8473 375.41 37.4695C375.546 37.0916 375.614 36.6707 375.614 36.2067C375.614 35.7393 375.546 35.3168 375.41 34.9389C375.277 34.5578 375.075 34.2545 374.803 34.0291C374.531 33.8037 374.193 33.6911 373.789 33.6911C373.375 33.6911 373.03 33.8037 372.755 34.0291C372.483 34.2545 372.279 34.5578 372.143 34.9389C372.011 35.3168 371.945 35.7393 371.945 36.2067C371.945 36.6707 372.011 37.0916 372.143 37.4695C372.279 37.8473 372.483 38.1489 372.755 38.3743C373.03 38.5964 373.375 38.7074 373.789 38.7074ZM378.966 42.8636V32.3636H380.736V33.6264H380.84C380.933 33.4408 381.064 33.2436 381.233 33.0348C381.402 32.8227 381.631 32.642 381.919 32.4929C382.207 32.3404 382.575 32.2642 383.023 32.2642C383.613 32.2642 384.144 32.415 384.618 32.7166C385.096 33.0149 385.474 33.4574 385.752 34.044C386.034 34.6274 386.175 35.3433 386.175 36.1918C386.175 37.0303 386.037 37.7429 385.762 38.3295C385.487 38.9162 385.112 39.3636 384.638 39.6719C384.164 39.9801 383.627 40.1342 383.028 40.1342C382.59 40.1342 382.227 40.0613 381.939 39.9155C381.65 39.7696 381.418 39.594 381.243 39.3885C381.07 39.1797 380.936 38.9825 380.84 38.7969H380.765V42.8636H378.966ZM380.731 36.1818C380.731 36.6757 380.8 37.1082 380.939 37.4794C381.082 37.8506 381.286 38.1406 381.551 38.3494C381.819 38.5549 382.144 38.6577 382.525 38.6577C382.923 38.6577 383.256 38.5516 383.525 38.3395C383.793 38.1241 383.995 37.8307 384.131 37.4595C384.27 37.085 384.34 36.6591 384.34 36.1818C384.34 35.7079 384.272 35.2869 384.136 34.919C384 34.5511 383.798 34.2628 383.53 34.054C383.261 33.8452 382.926 33.7408 382.525 33.7408C382.141 33.7408 381.814 33.8419 381.546 34.044C381.278 34.2462 381.074 34.5296 380.934 34.8942C380.799 35.2588 380.731 35.688 380.731 36.1818ZM391.096 40.1491C390.331 40.1491 389.67 39.9901 389.113 39.6719C388.559 39.3504 388.133 38.8963 387.835 38.3097C387.537 37.7197 387.388 37.0253 387.388 36.2266C387.388 35.4411 387.537 34.7517 387.835 34.1584C388.137 33.5618 388.558 33.0978 389.098 32.7663C389.638 32.4316 390.273 32.2642 391.002 32.2642C391.473 32.2642 391.917 32.3404 392.334 32.4929C392.755 32.642 393.126 32.8741 393.448 33.1889C393.773 33.5038 394.028 33.9048 394.214 34.392C394.399 34.8759 394.492 35.4527 394.492 36.1222V36.674H388.233V35.4609H392.767C392.764 35.1162 392.689 34.8097 392.543 34.5412C392.397 34.2694 392.193 34.0556 391.932 33.8999C391.673 33.7441 391.372 33.6662 391.027 33.6662C390.659 33.6662 390.336 33.7557 390.057 33.9347C389.779 34.1103 389.562 34.3423 389.406 34.6307C389.254 34.9157 389.176 35.2289 389.172 35.5703V36.6293C389.172 37.0734 389.254 37.4545 389.416 37.7727C389.578 38.0876 389.805 38.3295 390.097 38.4986C390.389 38.6643 390.73 38.7472 391.121 38.7472C391.383 38.7472 391.62 38.7107 391.832 38.6378C392.044 38.5616 392.228 38.4505 392.384 38.3047C392.54 38.1589 392.657 37.9782 392.737 37.7628L394.417 37.9517C394.311 38.3958 394.109 38.7836 393.811 39.1151C393.516 39.4432 393.138 39.6984 392.677 39.8807C392.217 40.0597 391.69 40.1491 391.096 40.1491ZM402.05 34.3821L400.409 34.5611C400.363 34.3954 400.282 34.2396 400.166 34.0938C400.053 33.9479 399.901 33.8303 399.708 33.7408C399.516 33.6513 399.281 33.6065 399.002 33.6065C398.628 33.6065 398.313 33.6877 398.058 33.8501C397.806 34.0125 397.682 34.223 397.685 34.4815C397.682 34.7036 397.763 34.8842 397.929 35.0234C398.098 35.1626 398.376 35.277 398.764 35.3665L400.066 35.6449C400.789 35.8007 401.326 36.0476 401.677 36.3857C402.032 36.7237 402.211 37.1662 402.214 37.7131C402.211 38.1937 402.07 38.6179 401.792 38.9858C401.516 39.3504 401.134 39.6354 400.643 39.8409C400.153 40.0464 399.589 40.1491 398.953 40.1491C398.018 40.1491 397.266 39.9536 396.696 39.5625C396.126 39.1681 395.786 38.6196 395.676 37.9169L397.431 37.7479C397.511 38.0926 397.68 38.3527 397.939 38.5284C398.197 38.7041 398.533 38.7919 398.948 38.7919C399.375 38.7919 399.718 38.7041 399.977 38.5284C400.239 38.3527 400.37 38.1357 400.37 37.8771C400.37 37.6584 400.285 37.4777 400.116 37.3352C399.95 37.1927 399.692 37.0833 399.341 37.0071L398.038 36.7337C397.306 36.5812 396.764 36.3243 396.412 35.9631C396.061 35.5985 395.887 35.1378 395.89 34.581C395.887 34.1103 396.015 33.7027 396.273 33.358C396.535 33.0099 396.898 32.7415 397.362 32.5526C397.829 32.3603 398.368 32.2642 398.978 32.2642C399.873 32.2642 400.577 32.4548 401.091 32.8359C401.608 33.2171 401.927 33.7325 402.05 34.3821Z" fill="white"/>
<rect x="79.5" y="25.5" width="23" height="23" stroke="white"/>
<path d="M91.0002 30.5859L86.2932 35.2929C85.9022 35.6839 85.9022 36.3159 86.2932 36.7069C86.6842 37.0979 87.3162 37.0979 87.7072 36.7069L90.0002 34.4139V41.9999C90.0002 42.5519 90.4472 42.9999 91.0002 42.9999C91.5532 42.9999 92.0002 42.5519 92.0002 41.9999V34.4139L94.2932 36.7069C94.4882 36.9019 94.7442 36.9999 95.0002 36.9999C95.2562 36.9999 95.5123 36.9019 95.7073 36.7069C96.0983 36.3159 96.0983 35.6839 95.7073 35.2929L91.0002 30.5859Z" fill="white"/>
<rect x="179.5" y="25.5" width="23" height="23" stroke="white"/>
<path d="M191 43L195.707 38.293C196.098 37.902 196.098 37.27 195.707 36.879C195.316 36.488 194.684 36.488 194.293 36.879L192 39.172V31.586C192 31.034 191.553 30.586 191 30.586C190.447 30.586 190 31.034 190 31.586V39.172L187.707 36.879C187.512 36.684 187.256 36.586 187 36.586C186.744 36.586 186.488 36.684 186.293 36.879C185.902 37.27 185.902 37.902 186.293 38.293L191 43Z" fill="white"/>
<path d="M39.5376 6.61719C39.4912 6.183 39.2957 5.84493 38.951 5.60298C38.6096 5.36103 38.1655 5.24006 37.6186 5.24006C37.2341 5.24006 36.9044 5.29806 36.6293 5.41406C36.3542 5.53007 36.1437 5.6875 35.9979 5.88636C35.852 6.08523 35.7775 6.31226 35.7741 6.56747C35.7741 6.77959 35.8222 6.96354 35.9183 7.11932C36.0178 7.27509 36.152 7.40767 36.321 7.51705C36.4901 7.62311 36.6773 7.71259 36.8828 7.78551C37.0883 7.85843 37.2955 7.91974 37.5043 7.96946L38.4588 8.2081C38.8433 8.29758 39.2128 8.41856 39.5675 8.57102C39.9254 8.72348 40.2453 8.91572 40.527 9.14773C40.812 9.37973 41.0374 9.6598 41.2031 9.98793C41.3688 10.3161 41.4517 10.7005 41.4517 11.1413C41.4517 11.7379 41.2992 12.2633 40.9943 12.7173C40.6894 13.1681 40.2486 13.5211 39.6719 13.7763C39.0985 14.0282 38.4041 14.1541 37.5888 14.1541C36.7966 14.1541 36.1089 14.0315 35.5256 13.7862C34.9455 13.541 34.4915 13.183 34.1634 12.7124C33.8385 12.2417 33.6629 11.6683 33.6364 10.9922H35.451C35.4775 11.3468 35.5869 11.6418 35.7791 11.8771C35.9714 12.1125 36.2216 12.2881 36.5298 12.4041C36.8414 12.5201 37.1894 12.5781 37.5739 12.5781C37.9749 12.5781 38.3262 12.5185 38.6278 12.3991C38.9328 12.2765 39.1714 12.1075 39.3438 11.892C39.5161 11.6733 39.6039 11.4181 39.6072 11.1264C39.6039 10.8613 39.526 10.6425 39.3736 10.4702C39.2211 10.2945 39.0073 10.1487 38.7322 10.0327C38.4605 9.91335 38.1423 9.80729 37.7777 9.71449L36.6193 9.41619C35.7808 9.20076 35.1179 8.87429 34.6307 8.43679C34.1468 7.99598 33.9048 7.41098 33.9048 6.68182C33.9048 6.08191 34.0672 5.55658 34.392 5.10582C34.7202 4.65507 35.166 4.3054 35.7294 4.05682C36.2929 3.80492 36.9309 3.67898 37.6435 3.67898C38.366 3.67898 38.9991 3.80492 39.5426 4.05682C40.0895 4.3054 40.5187 4.65175 40.8303 5.09588C41.1418 5.53669 41.3026 6.0438 41.3125 6.61719H39.5376ZM45.214 14.1541C44.7301 14.1541 44.2942 14.0679 43.9064 13.8956C43.522 13.7199 43.217 13.4614 42.9917 13.12C42.7696 12.7786 42.6586 12.3577 42.6586 11.8572C42.6586 11.4264 42.7381 11.0701 42.8972 10.7884C43.0563 10.5066 43.2734 10.2812 43.5485 10.1122C43.8236 9.94318 44.1335 9.81558 44.4782 9.7294C44.8262 9.63991 45.1858 9.57528 45.557 9.53551C46.0044 9.48911 46.3674 9.44768 46.6458 9.41122C46.9242 9.37145 47.1264 9.31179 47.2523 9.23224C47.3816 9.14938 47.4462 9.02178 47.4462 8.84943V8.8196C47.4462 8.44508 47.3352 8.15507 47.1131 7.94957C46.891 7.74408 46.5712 7.64134 46.1536 7.64134C45.7128 7.64134 45.3631 7.73745 45.1046 7.92969C44.8494 8.12192 44.677 8.34896 44.5875 8.6108L42.9071 8.37216C43.0397 7.90814 43.2585 7.52036 43.5634 7.20881C43.8683 6.89394 44.2412 6.65862 44.682 6.50284C45.1228 6.34375 45.61 6.2642 46.1436 6.2642C46.5115 6.2642 46.8778 6.30729 47.2424 6.39347C47.6069 6.47964 47.94 6.62216 48.2417 6.82102C48.5433 7.01657 48.7852 7.28338 48.9675 7.62145C49.1531 7.95952 49.2459 8.3821 49.2459 8.8892V14H47.5158V12.951H47.4561C47.3468 13.1631 47.1926 13.362 46.9938 13.5476C46.7982 13.7299 46.5513 13.8774 46.253 13.9901C45.958 14.0994 45.6117 14.1541 45.214 14.1541ZM45.6813 12.8317C46.0426 12.8317 46.3558 12.7604 46.6209 12.6179C46.8861 12.4721 47.0899 12.2798 47.2324 12.0412C47.3783 11.8026 47.4512 11.5424 47.4512 11.2607V10.3608C47.3948 10.4072 47.2987 10.4503 47.1628 10.4901C47.0302 10.5298 46.8811 10.5646 46.7154 10.5945C46.5497 10.6243 46.3856 10.6508 46.2232 10.674C46.0608 10.6972 45.9199 10.7171 45.8006 10.7337C45.5321 10.7701 45.2918 10.8298 45.0797 10.9126C44.8676 10.9955 44.7002 11.1115 44.5776 11.2607C44.455 11.4065 44.3936 11.5954 44.3936 11.8274C44.3936 12.1589 44.5146 12.4091 44.7566 12.5781C44.9985 12.7472 45.3068 12.8317 45.6813 12.8317ZM57.6032 6.36364L54.8837 14H52.8951L50.1756 6.36364H52.0946L53.8496 12.0362H53.9292L55.6891 6.36364H57.6032ZM61.9695 14.1491C61.2038 14.1491 60.5426 13.9901 59.9858 13.6719C59.4323 13.3504 59.0064 12.8963 58.7081 12.3097C58.4098 11.7197 58.2607 11.0253 58.2607 10.2266C58.2607 9.44105 58.4098 8.75166 58.7081 8.15838C59.0097 7.56179 59.4306 7.09777 59.9709 6.76633C60.5111 6.43158 61.1458 6.2642 61.875 6.2642C62.3456 6.2642 62.7898 6.34044 63.2074 6.4929C63.6283 6.64205 63.9995 6.87405 64.321 7.18892C64.6458 7.50379 64.901 7.90483 65.0866 8.39205C65.2723 8.87595 65.3651 9.45265 65.3651 10.1222V10.674H59.1058V9.46094H63.6399C63.6366 9.11624 63.562 8.80966 63.4162 8.54119C63.2704 8.26941 63.0665 8.05563 62.8047 7.89986C62.5462 7.74408 62.2446 7.66619 61.8999 7.66619C61.532 7.66619 61.2088 7.75568 60.9304 7.93466C60.652 8.11032 60.4349 8.34233 60.2791 8.63068C60.1267 8.91572 60.0488 9.22893 60.0455 9.57031V10.6293C60.0455 11.0734 60.1267 11.4545 60.2891 11.7727C60.4515 12.0876 60.6785 12.3295 60.9702 12.4986C61.2618 12.6643 61.6032 12.7472 61.9943 12.7472C62.2562 12.7472 62.4931 12.7107 62.7053 12.6378C62.9174 12.5616 63.1013 12.4505 63.2571 12.3047C63.4129 12.1589 63.5305 11.9782 63.6101 11.7628L65.2905 11.9517C65.1844 12.3958 64.9822 12.7836 64.6839 13.1151C64.389 13.4432 64.0111 13.6984 63.5504 13.8807C63.0897 14.0597 62.5627 14.1491 61.9695 14.1491ZM74.1735 6.36364V7.75568H69.7836V6.36364H74.1735ZM70.8674 4.53409H72.6671V11.7031C72.6671 11.9451 72.7035 12.1307 72.7765 12.2599C72.8527 12.3859 72.9521 12.4721 73.0748 12.5185C73.1974 12.5649 73.3333 12.5881 73.4824 12.5881C73.5951 12.5881 73.6979 12.5798 73.7907 12.5632C73.8868 12.5466 73.9597 12.5317 74.0094 12.5185L74.3127 13.9254C74.2166 13.9586 74.079 13.995 73.9 14.0348C73.7244 14.0746 73.5089 14.0978 73.2537 14.1044C72.803 14.1177 72.397 14.0497 72.0357 13.9006C71.6744 13.7481 71.3877 13.5128 71.1756 13.1946C70.9668 12.8764 70.8641 12.4787 70.8674 12.0014V4.53409ZM77.6424 9.52557V14H75.8427V3.81818H77.6026V7.66122H77.6921C77.8711 7.23035 78.1478 6.89062 78.5224 6.64205C78.9002 6.39015 79.3808 6.2642 79.9641 6.2642C80.4944 6.2642 80.9568 6.37524 81.3512 6.5973C81.7456 6.81937 82.0505 7.14418 82.266 7.57173C82.4847 7.99929 82.5941 8.52131 82.5941 9.13778V14H80.7944V9.41619C80.7944 8.90246 80.6618 8.50308 80.3967 8.21804C80.1348 7.92969 79.7669 7.78551 79.293 7.78551C78.9748 7.78551 78.6897 7.85511 78.4379 7.99432C78.1893 8.13021 77.9937 8.32741 77.8512 8.58594C77.712 8.84446 77.6424 9.15767 77.6424 9.52557ZM84.4286 14V6.36364H86.2283V14H84.4286ZM85.3335 5.27983C85.0484 5.27983 84.8031 5.18537 84.5977 4.99645C84.3922 4.80421 84.2894 4.57386 84.2894 4.3054C84.2894 4.03362 84.3922 3.80327 84.5977 3.61435C84.8031 3.42211 85.0484 3.32599 85.3335 3.32599C85.6218 3.32599 85.8671 3.42211 86.0692 3.61435C86.2747 3.80327 86.3775 4.03362 86.3775 4.3054C86.3775 4.57386 86.2747 4.80421 86.0692 4.99645C85.8671 5.18537 85.6218 5.27983 85.3335 5.27983ZM94.1145 8.3821L92.4739 8.56108C92.4275 8.39536 92.3463 8.23958 92.2303 8.09375C92.1176 7.94792 91.9651 7.83026 91.7729 7.74077C91.5807 7.65128 91.3453 7.60653 91.0669 7.60653C90.6924 7.60653 90.3775 7.68774 90.1223 7.85014C89.8704 8.01255 89.7462 8.22301 89.7495 8.48153C89.7462 8.7036 89.8274 8.88423 89.9931 9.02344C90.1621 9.16264 90.4405 9.27699 90.8283 9.36648L92.1309 9.64489C92.8534 9.80066 93.3903 10.0476 93.7417 10.3857C94.0963 10.7237 94.2753 11.1662 94.2786 11.7131C94.2753 12.1937 94.1344 12.6179 93.856 12.9858C93.5809 13.3504 93.1981 13.6354 92.7076 13.8409C92.217 14.0464 91.6536 14.1491 91.0172 14.1491C90.0826 14.1491 89.3302 13.9536 88.7601 13.5625C88.19 13.1681 87.8503 12.6196 87.7409 11.9169L89.4959 11.7479C89.5755 12.0926 89.7445 12.3527 90.003 12.5284C90.2615 12.7041 90.598 12.7919 91.0123 12.7919C91.4398 12.7919 91.7828 12.7041 92.0414 12.5284C92.3032 12.3527 92.4341 12.1357 92.4341 11.8771C92.4341 11.6584 92.3496 11.4777 92.1806 11.3352C92.0149 11.1927 91.7563 11.0833 91.405 11.0071L90.1025 10.7337C89.37 10.5812 88.8281 10.3243 88.4767 9.96307C88.1254 9.59848 87.9514 9.13778 87.9547 8.58097C87.9514 8.11032 88.079 7.70265 88.3375 7.35795C88.5994 7.00994 88.9623 6.74148 89.4263 6.55256C89.8936 6.36032 90.4322 6.2642 91.0421 6.2642C91.937 6.2642 92.6413 6.45478 93.155 6.83594C93.6721 7.21709 93.9919 7.73248 94.1145 8.3821ZM106.136 7.0696C106.053 6.80114 105.939 6.56084 105.793 6.34872C105.65 6.13329 105.478 5.94934 105.276 5.79688C105.077 5.64441 104.848 5.53007 104.59 5.45383C104.331 5.37429 104.049 5.33452 103.744 5.33452C103.198 5.33452 102.71 5.47206 102.283 5.74716C101.855 6.02225 101.519 6.42661 101.274 6.96023C101.032 7.49053 100.911 8.13684 100.911 8.89915C100.911 9.66809 101.032 10.3194 101.274 10.853C101.516 11.3866 101.852 11.7926 102.283 12.071C102.714 12.3461 103.214 12.4837 103.784 12.4837C104.301 12.4837 104.749 12.3842 105.127 12.1854C105.508 11.9865 105.801 11.7048 106.007 11.3402C106.212 10.9723 106.315 10.5414 106.315 10.0476L106.732 10.1122H103.968V8.67045H108.1V9.89347C108.1 10.7652 107.914 11.5192 107.543 12.1555C107.172 12.7919 106.661 13.2824 106.012 13.6271C105.362 13.9685 104.616 14.1392 103.774 14.1392C102.836 14.1392 102.013 13.9287 101.303 13.5078C100.597 13.0836 100.046 12.482 99.6479 11.7031C99.2535 10.9209 99.0563 9.9929 99.0563 8.91903C99.0563 8.09706 99.1723 7.36293 99.4043 6.71662C99.6396 6.07031 99.9677 5.52178 100.389 5.07102C100.81 4.61695 101.303 4.27225 101.87 4.03693C102.437 3.7983 103.053 3.67898 103.72 3.67898C104.283 3.67898 104.808 3.76184 105.296 3.92756C105.783 4.08996 106.215 4.32197 106.593 4.62358C106.974 4.92519 107.288 5.28314 107.533 5.69744C107.778 6.11174 107.939 6.56913 108.015 7.0696H106.136ZM113.184 14.1491C112.419 14.1491 111.757 13.9901 111.201 13.6719C110.647 13.3504 110.221 12.8963 109.923 12.3097C109.625 11.7197 109.475 11.0253 109.475 10.2266C109.475 9.44105 109.625 8.75166 109.923 8.15838C110.225 7.56179 110.645 7.09777 111.186 6.76633C111.726 6.43158 112.361 6.2642 113.09 6.2642C113.56 6.2642 114.005 6.34044 114.422 6.4929C114.843 6.64205 115.214 6.87405 115.536 7.18892C115.861 7.50379 116.116 7.90483 116.301 8.39205C116.487 8.87595 116.58 9.45265 116.58 10.1222V10.674H110.321V9.46094H114.855C114.851 9.11624 114.777 8.80966 114.631 8.54119C114.485 8.26941 114.281 8.05563 114.02 7.89986C113.761 7.74408 113.459 7.66619 113.115 7.66619C112.747 7.66619 112.424 7.75568 112.145 7.93466C111.867 8.11032 111.65 8.34233 111.494 8.63068C111.342 8.91572 111.264 9.22893 111.26 9.57031V10.6293C111.26 11.0734 111.342 11.4545 111.504 11.7727C111.666 12.0876 111.893 12.3295 112.185 12.4986C112.477 12.6643 112.818 12.7472 113.209 12.7472C113.471 12.7472 113.708 12.7107 113.92 12.6378C114.132 12.5616 114.316 12.4505 114.472 12.3047C114.628 12.1589 114.745 11.9782 114.825 11.7628L116.505 11.9517C116.399 12.3958 116.197 12.7836 115.899 13.1151C115.604 13.4432 115.226 13.6984 114.765 13.8807C114.305 14.0597 113.778 14.1491 113.184 14.1491ZM121.433 14.1491C120.688 14.1491 120.041 13.9851 119.494 13.657C118.948 13.3288 118.523 12.8698 118.222 12.2798C117.923 11.6899 117.774 11.0005 117.774 10.2116C117.774 9.42282 117.923 8.73177 118.222 8.13849C118.523 7.54522 118.948 7.08452 119.494 6.75639C120.041 6.42827 120.688 6.2642 121.433 6.2642C122.179 6.2642 122.825 6.42827 123.372 6.75639C123.919 7.08452 124.342 7.54522 124.64 8.13849C124.942 8.73177 125.093 9.42282 125.093 10.2116C125.093 11.0005 124.942 11.6899 124.64 12.2798C124.342 12.8698 123.919 13.3288 123.372 13.657C122.825 13.9851 122.179 14.1491 121.433 14.1491ZM121.443 12.7074C121.848 12.7074 122.186 12.5964 122.458 12.3743C122.729 12.1489 122.932 11.8473 123.064 11.4695C123.2 11.0916 123.268 10.6707 123.268 10.2067C123.268 9.73935 123.2 9.31676 123.064 8.93892C122.932 8.55777 122.729 8.2545 122.458 8.02912C122.186 7.80374 121.848 7.69105 121.443 7.69105C121.029 7.69105 120.684 7.80374 120.409 8.02912C120.137 8.2545 119.934 8.55777 119.798 8.93892C119.665 9.31676 119.599 9.73935 119.599 10.2067C119.599 10.6707 119.665 11.0916 119.798 11.4695C119.934 11.8473 120.137 12.1489 120.409 12.3743C120.684 12.5964 121.029 12.7074 121.443 12.7074ZM126.62 14V6.36364H128.365V7.63636H128.445C128.584 7.19555 128.822 6.85582 129.161 6.61719C129.502 6.37524 129.891 6.25426 130.329 6.25426C130.428 6.25426 130.539 6.25923 130.662 6.26918C130.788 6.2758 130.892 6.2874 130.975 6.30398V7.95952C130.899 7.933 130.778 7.9098 130.612 7.88991C130.45 7.86671 130.292 7.85511 130.14 7.85511C129.812 7.85511 129.517 7.92637 129.255 8.06889C128.996 8.2081 128.793 8.40199 128.643 8.65057C128.494 8.89915 128.42 9.18584 128.42 9.51065V14H126.62ZM135.177 17.0227C134.531 17.0227 133.976 16.9349 133.512 16.7592C133.048 16.5869 132.675 16.3549 132.393 16.0632C132.112 15.7715 131.916 15.4484 131.807 15.0938L133.427 14.701C133.5 14.8501 133.606 14.9976 133.746 15.1435C133.885 15.2926 134.072 15.4152 134.307 15.5114C134.546 15.6108 134.846 15.6605 135.207 15.6605C135.718 15.6605 136.14 15.5362 136.475 15.2876C136.81 15.0424 136.977 14.638 136.977 14.0746V12.6278H136.888C136.795 12.8134 136.659 13.004 136.48 13.1996C136.304 13.3951 136.071 13.5592 135.779 13.6918C135.491 13.8243 135.128 13.8906 134.69 13.8906C134.104 13.8906 133.572 13.7531 133.094 13.478C132.62 13.1996 132.242 12.7853 131.961 12.2351C131.682 11.6816 131.543 10.9889 131.543 10.157C131.543 9.31842 131.682 8.6108 131.961 8.03409C132.242 7.45407 132.622 7.01491 133.099 6.71662C133.577 6.41501 134.108 6.2642 134.695 6.2642C135.143 6.2642 135.51 6.34044 135.799 6.4929C136.09 6.64205 136.323 6.82268 136.495 7.0348C136.667 7.24361 136.798 7.44081 136.888 7.62642H136.987V6.36364H138.762V14.1243C138.762 14.7772 138.606 15.3175 138.295 15.745C137.983 16.1726 137.557 16.4924 137.017 16.7045C136.477 16.9167 135.863 17.0227 135.177 17.0227ZM135.192 12.4787C135.573 12.4787 135.898 12.3859 136.167 12.2003C136.435 12.0147 136.639 11.7479 136.778 11.3999C136.917 11.0518 136.987 10.6342 136.987 10.147C136.987 9.66643 136.917 9.2455 136.778 8.88423C136.642 8.52296 136.44 8.2429 136.172 8.04403C135.907 7.84186 135.58 7.74077 135.192 7.74077C134.791 7.74077 134.456 7.84517 134.188 8.05398C133.92 8.26278 133.717 8.54948 133.581 8.91406C133.446 9.27533 133.378 9.68632 133.378 10.147C133.378 10.6143 133.446 11.0237 133.581 11.375C133.721 11.723 133.925 11.9948 134.193 12.1903C134.465 12.3826 134.798 12.4787 135.192 12.4787ZM143.987 14.1491C143.221 14.1491 142.56 13.9901 142.003 13.6719C141.45 13.3504 141.024 12.8963 140.726 12.3097C140.427 11.7197 140.278 11.0253 140.278 10.2266C140.278 9.44105 140.427 8.75166 140.726 8.15838C141.027 7.56179 141.448 7.09777 141.988 6.76633C142.529 6.43158 143.163 6.2642 143.893 6.2642C144.363 6.2642 144.807 6.34044 145.225 6.4929C145.646 6.64205 146.017 6.87405 146.339 7.18892C146.663 7.50379 146.919 7.90483 147.104 8.39205C147.29 8.87595 147.383 9.45265 147.383 10.1222V10.674H141.123V9.46094H145.657C145.654 9.11624 145.58 8.80966 145.434 8.54119C145.288 8.26941 145.084 8.05563 144.822 7.89986C144.564 7.74408 144.262 7.66619 143.917 7.66619C143.55 7.66619 143.226 7.75568 142.948 7.93466C142.67 8.11032 142.452 8.34233 142.297 8.63068C142.144 8.91572 142.066 9.22893 142.063 9.57031V10.6293C142.063 11.0734 142.144 11.4545 142.307 11.7727C142.469 12.0876 142.696 12.3295 142.988 12.4986C143.279 12.6643 143.621 12.7472 144.012 12.7472C144.274 12.7472 144.511 12.7107 144.723 12.6378C144.935 12.5616 145.119 12.4505 145.275 12.3047C145.43 12.1589 145.548 11.9782 145.628 11.7628L147.308 11.9517C147.202 12.3958 147 12.7836 146.702 13.1151C146.407 13.4432 146.029 13.6984 145.568 13.8807C145.107 14.0597 144.58 14.1491 143.987 14.1491ZM156.246 6.36364V7.75568H151.732V6.36364H156.246ZM152.86 14V5.64276C152.86 5.12902 152.966 4.70147 153.178 4.36008C153.394 4.0187 153.682 3.76349 154.043 3.59446C154.405 3.42543 154.806 3.34091 155.246 3.34091C155.558 3.34091 155.835 3.36577 156.077 3.41548C156.319 3.4652 156.498 3.50994 156.614 3.54972L156.256 4.94176C156.179 4.91856 156.083 4.89536 155.967 4.87216C155.851 4.84564 155.722 4.83239 155.58 4.83239C155.245 4.83239 155.008 4.91359 154.869 5.07599C154.733 5.23508 154.665 5.46378 154.665 5.76207V14H152.86ZM157.655 14V6.36364H159.4V7.63636H159.48C159.619 7.19555 159.858 6.85582 160.196 6.61719C160.537 6.37524 160.926 6.25426 161.364 6.25426C161.463 6.25426 161.574 6.25923 161.697 6.26918C161.823 6.2758 161.927 6.2874 162.01 6.30398V7.95952C161.934 7.933 161.813 7.9098 161.647 7.88991C161.485 7.86671 161.328 7.85511 161.175 7.85511C160.847 7.85511 160.552 7.92637 160.29 8.06889C160.032 8.2081 159.828 8.40199 159.679 8.65057C159.529 8.89915 159.455 9.18584 159.455 9.51065V14H157.655ZM166.222 14.1491C165.477 14.1491 164.83 13.9851 164.284 13.657C163.737 13.3288 163.312 12.8698 163.011 12.2798C162.713 11.6899 162.563 11.0005 162.563 10.2116C162.563 9.42282 162.713 8.73177 163.011 8.13849C163.312 7.54522 163.737 7.08452 164.284 6.75639C164.83 6.42827 165.477 6.2642 166.222 6.2642C166.968 6.2642 167.615 6.42827 168.161 6.75639C168.708 7.08452 169.131 7.54522 169.429 8.13849C169.731 8.73177 169.882 9.42282 169.882 10.2116C169.882 11.0005 169.731 11.6899 169.429 12.2798C169.131 12.8698 168.708 13.3288 168.161 13.657C167.615 13.9851 166.968 14.1491 166.222 14.1491ZM166.232 12.7074C166.637 12.7074 166.975 12.5964 167.247 12.3743C167.518 12.1489 167.721 11.8473 167.853 11.4695C167.989 11.0916 168.057 10.6707 168.057 10.2067C168.057 9.73935 167.989 9.31676 167.853 8.93892C167.721 8.55777 167.518 8.2545 167.247 8.02912C166.975 7.80374 166.637 7.69105 166.232 7.69105C165.818 7.69105 165.473 7.80374 165.198 8.02912C164.927 8.2545 164.723 8.55777 164.587 8.93892C164.454 9.31676 164.388 9.73935 164.388 10.2067C164.388 10.6707 164.454 11.0916 164.587 11.4695C164.723 11.8473 164.927 12.1489 165.198 12.3743C165.473 12.5964 165.818 12.7074 166.232 12.7074ZM171.409 14V6.36364H173.129V7.66122H173.219C173.378 7.22372 173.641 6.88234 174.009 6.63707C174.377 6.38849 174.816 6.2642 175.327 6.2642C175.844 6.2642 176.28 6.39015 176.634 6.64205C176.992 6.89062 177.244 7.23035 177.39 7.66122H177.469C177.638 7.23698 177.924 6.89891 178.325 6.64702C178.729 6.39181 179.208 6.2642 179.761 6.2642C180.464 6.2642 181.037 6.48627 181.482 6.9304C181.926 7.37453 182.148 8.02249 182.148 8.87429V14H180.343V9.1527C180.343 8.67874 180.217 8.33239 179.965 8.11364C179.713 7.89157 179.405 7.78054 179.04 7.78054C178.606 7.78054 178.267 7.91643 178.021 8.18821C177.779 8.45668 177.658 8.80634 177.658 9.23722V14H175.893V9.07812C175.893 8.68371 175.774 8.36884 175.536 8.13352C175.3 7.8982 174.992 7.78054 174.611 7.78054C174.352 7.78054 174.117 7.84683 173.905 7.9794C173.693 8.10866 173.524 8.29261 173.398 8.53125C173.272 8.76657 173.209 9.04167 173.209 9.35653V14H171.409ZM190.777 14.1491C190.015 14.1491 189.36 13.9818 188.813 13.647C188.27 13.3123 187.851 12.8499 187.556 12.2599C187.264 11.6667 187.118 10.9839 187.118 10.2116C187.118 9.43608 187.267 8.75166 187.566 8.15838C187.864 7.56179 188.285 7.09777 188.828 6.76633C189.375 6.43158 190.021 6.2642 190.767 6.2642C191.387 6.2642 191.936 6.37855 192.413 6.60724C192.893 6.83262 193.276 7.15246 193.561 7.56676C193.846 7.97775 194.009 8.45833 194.048 9.00852H192.328C192.259 8.64062 192.093 8.33404 191.831 8.08878C191.573 7.8402 191.226 7.71591 190.792 7.71591C190.424 7.71591 190.101 7.81534 189.823 8.0142C189.544 8.20975 189.327 8.49148 189.171 8.85938C189.019 9.22727 188.943 9.66809 188.943 10.1818C188.943 10.7022 189.019 11.1496 189.171 11.5241C189.324 11.8954 189.538 12.1821 189.813 12.3842C190.091 12.5831 190.418 12.6825 190.792 12.6825C191.057 12.6825 191.294 12.6328 191.503 12.5334C191.715 12.4306 191.892 12.2831 192.035 12.0909C192.177 11.8987 192.275 11.665 192.328 11.3899H194.048C194.005 11.9302 193.846 12.4091 193.571 12.8267C193.296 13.241 192.922 13.5658 192.448 13.8011C191.974 14.0331 191.417 14.1491 190.777 14.1491ZM195.526 14V6.36364H197.271V7.63636H197.351C197.49 7.19555 197.729 6.85582 198.067 6.61719C198.408 6.37524 198.798 6.25426 199.235 6.25426C199.335 6.25426 199.446 6.25923 199.568 6.26918C199.694 6.2758 199.799 6.2874 199.881 6.30398V7.95952C199.805 7.933 199.684 7.9098 199.518 7.88991C199.356 7.86671 199.199 7.85511 199.046 7.85511C198.718 7.85511 198.423 7.92637 198.161 8.06889C197.903 8.2081 197.699 8.40199 197.55 8.65057C197.401 8.89915 197.326 9.18584 197.326 9.51065V14H195.526ZM203.138 14.1541C202.654 14.1541 202.218 14.0679 201.83 13.8956C201.446 13.7199 201.141 13.4614 200.915 13.12C200.693 12.7786 200.582 12.3577 200.582 11.8572C200.582 11.4264 200.662 11.0701 200.821 10.7884C200.98 10.5066 201.197 10.2812 201.472 10.1122C201.747 9.94318 202.057 9.81558 202.402 9.7294C202.75 9.63991 203.11 9.57528 203.481 9.53551C203.928 9.48911 204.291 9.44768 204.57 9.41122C204.848 9.37145 205.05 9.31179 205.176 9.23224C205.305 9.14938 205.37 9.02178 205.37 8.84943V8.8196C205.37 8.44508 205.259 8.15507 205.037 7.94957C204.815 7.74408 204.495 7.64134 204.077 7.64134C203.637 7.64134 203.287 7.73745 203.028 7.92969C202.773 8.12192 202.601 8.34896 202.511 8.6108L200.831 8.37216C200.964 7.90814 201.182 7.52036 201.487 7.20881C201.792 6.89394 202.165 6.65862 202.606 6.50284C203.047 6.34375 203.534 6.2642 204.067 6.2642C204.435 6.2642 204.802 6.30729 205.166 6.39347C205.531 6.47964 205.864 6.62216 206.165 6.82102C206.467 7.01657 206.709 7.28338 206.891 7.62145C207.077 7.95952 207.17 8.3821 207.17 8.8892V14H205.44V12.951H205.38C205.271 13.1631 205.116 13.362 204.918 13.5476C204.722 13.7299 204.475 13.8774 204.177 13.9901C203.882 14.0994 203.536 14.1541 203.138 14.1541ZM203.605 12.8317C203.966 12.8317 204.28 12.7604 204.545 12.6179C204.81 12.4721 205.014 12.2798 205.156 12.0412C205.302 11.8026 205.375 11.5424 205.375 11.2607V10.3608C205.319 10.4072 205.223 10.4503 205.087 10.4901C204.954 10.5298 204.805 10.5646 204.639 10.5945C204.473 10.6243 204.309 10.6508 204.147 10.674C203.985 10.6972 203.844 10.7171 203.724 10.7337C203.456 10.7701 203.216 10.8298 203.004 10.9126C202.791 10.9955 202.624 11.1115 202.501 11.2607C202.379 11.4065 202.317 11.5954 202.317 11.8274C202.317 12.1589 202.438 12.4091 202.68 12.5781C202.922 12.7472 203.231 12.8317 203.605 12.8317ZM215.015 8.3821L213.374 8.56108C213.328 8.39536 213.247 8.23958 213.131 8.09375C213.018 7.94792 212.866 7.83026 212.673 7.74077C212.481 7.65128 212.246 7.60653 211.967 7.60653C211.593 7.60653 211.278 7.68774 211.023 7.85014C210.771 8.01255 210.647 8.22301 210.65 8.48153C210.647 8.7036 210.728 8.88423 210.893 9.02344C211.063 9.16264 211.341 9.27699 211.729 9.36648L213.031 9.64489C213.754 9.80066 214.291 10.0476 214.642 10.3857C214.997 10.7237 215.176 11.1662 215.179 11.7131C215.176 12.1937 215.035 12.6179 214.756 12.9858C214.481 13.3504 214.098 13.6354 213.608 13.8409C213.117 14.0464 212.554 14.1491 211.918 14.1491C210.983 14.1491 210.231 13.9536 209.661 13.5625C209.09 13.1681 208.751 12.6196 208.641 11.9169L210.396 11.7479C210.476 12.0926 210.645 12.3527 210.903 12.5284C211.162 12.7041 211.498 12.7919 211.913 12.7919C212.34 12.7919 212.683 12.7041 212.942 12.5284C213.204 12.3527 213.335 12.1357 213.335 11.8771C213.335 11.6584 213.25 11.4777 213.081 11.3352C212.915 11.1927 212.657 11.0833 212.305 11.0071L211.003 10.7337C210.27 10.5812 209.728 10.3243 209.377 9.96307C209.026 9.59848 208.852 9.13778 208.855 8.58097C208.852 8.11032 208.979 7.70265 209.238 7.35795C209.5 7.00994 209.863 6.74148 210.327 6.55256C210.794 6.36032 211.333 6.2642 211.942 6.2642C212.837 6.2642 213.542 6.45478 214.055 6.83594C214.572 7.21709 214.892 7.73248 215.015 8.3821ZM218.463 9.52557V14H216.663V3.81818H218.423V7.66122H218.512C218.691 7.23035 218.968 6.89062 219.343 6.64205C219.721 6.39015 220.201 6.2642 220.784 6.2642C221.315 6.2642 221.777 6.37524 222.172 6.5973C222.566 6.81937 222.871 7.14418 223.086 7.57173C223.305 7.99929 223.414 8.52131 223.414 9.13778V14H221.615V9.41619C221.615 8.90246 221.482 8.50308 221.217 8.21804C220.955 7.92969 220.587 7.78551 220.113 7.78551C219.795 7.78551 219.51 7.85511 219.258 7.99432C219.01 8.13021 218.814 8.32741 218.672 8.58594C218.532 8.84446 218.463 9.15767 218.463 9.52557ZM225.249 14V6.36364H227.049V14H225.249ZM226.154 5.27983C225.869 5.27983 225.623 5.18537 225.418 4.99645C225.212 4.80421 225.11 4.57386 225.11 4.3054C225.11 4.03362 225.212 3.80327 225.418 3.61435C225.623 3.42211 225.869 3.32599 226.154 3.32599C226.442 3.32599 226.687 3.42211 226.89 3.61435C227.095 3.80327 227.198 4.03362 227.198 4.3054C227.198 4.57386 227.095 4.80421 226.89 4.99645C226.687 5.18537 226.442 5.27983 226.154 5.27983ZM230.699 9.52557V14H228.899V6.36364H230.619V7.66122H230.709C230.885 7.23366 231.165 6.89394 231.549 6.64205C231.937 6.39015 232.416 6.2642 232.986 6.2642C233.513 6.2642 233.972 6.37689 234.363 6.60227C234.758 6.82765 235.062 7.15412 235.278 7.58168C235.497 8.00923 235.604 8.52794 235.601 9.13778V14H233.801V9.41619C233.801 8.90578 233.669 8.50639 233.404 8.21804C233.142 7.92969 232.779 7.78551 232.315 7.78551C232 7.78551 231.72 7.85511 231.475 7.99432C231.233 8.13021 231.042 8.32741 230.903 8.58594C230.767 8.84446 230.699 9.15767 230.699 9.52557ZM240.752 17.0227C240.105 17.0227 239.55 16.9349 239.086 16.7592C238.622 16.5869 238.249 16.3549 237.968 16.0632C237.686 15.7715 237.49 15.4484 237.381 15.0938L239.002 14.701C239.075 14.8501 239.181 14.9976 239.32 15.1435C239.459 15.2926 239.646 15.4152 239.882 15.5114C240.12 15.6108 240.42 15.6605 240.781 15.6605C241.292 15.6605 241.714 15.5362 242.049 15.2876C242.384 15.0424 242.551 14.638 242.551 14.0746V12.6278H242.462C242.369 12.8134 242.233 13.004 242.054 13.1996C241.878 13.3951 241.645 13.5592 241.353 13.6918C241.065 13.8243 240.702 13.8906 240.264 13.8906C239.678 13.8906 239.146 13.7531 238.669 13.478C238.195 13.1996 237.817 12.7853 237.535 12.2351C237.257 11.6816 237.117 10.9889 237.117 10.157C237.117 9.31842 237.257 8.6108 237.535 8.03409C237.817 7.45407 238.196 7.01491 238.673 6.71662C239.151 6.41501 239.683 6.2642 240.269 6.2642C240.717 6.2642 241.085 6.34044 241.373 6.4929C241.665 6.64205 241.897 6.82268 242.069 7.0348C242.241 7.24361 242.372 7.44081 242.462 7.62642H242.561V6.36364H244.336V14.1243C244.336 14.7772 244.18 15.3175 243.869 15.745C243.557 16.1726 243.131 16.4924 242.591 16.7045C242.051 16.9167 241.438 17.0227 240.752 17.0227ZM240.767 12.4787C241.148 12.4787 241.472 12.3859 241.741 12.2003C242.009 12.0147 242.213 11.7479 242.352 11.3999C242.492 11.0518 242.561 10.6342 242.561 10.147C242.561 9.66643 242.492 9.2455 242.352 8.88423C242.217 8.52296 242.014 8.2429 241.746 8.04403C241.481 7.84186 241.154 7.74077 240.767 7.74077C240.365 7.74077 240.031 7.84517 239.762 8.05398C239.494 8.26278 239.292 8.54948 239.156 8.91406C239.02 9.27533 238.952 9.68632 238.952 10.147C238.952 10.6143 239.02 11.0237 239.156 11.375C239.295 11.723 239.499 11.9948 239.767 12.1903C240.039 12.3826 240.372 12.4787 240.767 12.4787ZM249.653 14V6.36364H251.453V14H249.653ZM250.558 5.27983C250.273 5.27983 250.028 5.18537 249.822 4.99645C249.617 4.80421 249.514 4.57386 249.514 4.3054C249.514 4.03362 249.617 3.80327 249.822 3.61435C250.028 3.42211 250.273 3.32599 250.558 3.32599C250.846 3.32599 251.092 3.42211 251.294 3.61435C251.499 3.80327 251.602 4.03362 251.602 4.3054C251.602 4.57386 251.499 4.80421 251.294 4.99645C251.092 5.18537 250.846 5.27983 250.558 5.27983ZM255.103 9.52557V14H253.304V6.36364H255.024V7.66122H255.113C255.289 7.23366 255.569 6.89394 255.953 6.64205C256.341 6.39015 256.82 6.2642 257.39 6.2642C257.917 6.2642 258.376 6.37689 258.767 6.60227C259.162 6.82765 259.467 7.15412 259.682 7.58168C259.901 8.00923 260.009 8.52794 260.005 9.13778V14H258.206V9.41619C258.206 8.90578 258.073 8.50639 257.808 8.21804C257.546 7.92969 257.183 7.78551 256.719 7.78551C256.404 7.78551 256.124 7.85511 255.879 7.99432C255.637 8.13021 255.446 8.32741 255.307 8.58594C255.171 8.84446 255.103 9.15767 255.103 9.52557ZM265.648 6.36364V7.75568H261.258V6.36364H265.648ZM262.342 4.53409H264.142V11.7031C264.142 11.9451 264.178 12.1307 264.251 12.2599C264.327 12.3859 264.427 12.4721 264.549 12.5185C264.672 12.5649 264.808 12.5881 264.957 12.5881C265.07 12.5881 265.172 12.5798 265.265 12.5632C265.361 12.5466 265.434 12.5317 265.484 12.5185L265.787 13.9254C265.691 13.9586 265.554 13.995 265.375 14.0348C265.199 14.0746 264.984 14.0978 264.728 14.1044C264.278 14.1177 263.872 14.0497 263.51 13.9006C263.149 13.7481 262.862 13.5128 262.65 13.1946C262.441 12.8764 262.339 12.4787 262.342 12.0014V4.53409ZM270.402 14.1491C269.656 14.1491 269.01 13.9851 268.463 13.657C267.916 13.3288 267.492 12.8698 267.191 12.2798C266.892 11.6899 266.743 11.0005 266.743 10.2116C266.743 9.42282 266.892 8.73177 267.191 8.13849C267.492 7.54522 267.916 7.08452 268.463 6.75639C269.01 6.42827 269.656 6.2642 270.402 6.2642C271.148 6.2642 271.794 6.42827 272.341 6.75639C272.888 7.08452 273.311 7.54522 273.609 8.13849C273.91 8.73177 274.061 9.42282 274.061 10.2116C274.061 11.0005 273.91 11.6899 273.609 12.2798C273.311 12.8698 272.888 13.3288 272.341 13.657C271.794 13.9851 271.148 14.1491 270.402 14.1491ZM270.412 12.7074C270.816 12.7074 271.155 12.5964 271.426 12.3743C271.698 12.1489 271.9 11.8473 272.033 11.4695C272.169 11.0916 272.237 10.6707 272.237 10.2067C272.237 9.73935 272.169 9.31676 272.033 8.93892C271.9 8.55777 271.698 8.2545 271.426 8.02912C271.155 7.80374 270.816 7.69105 270.412 7.69105C269.998 7.69105 269.653 7.80374 269.378 8.02912C269.106 8.2545 268.902 8.55777 268.767 8.93892C268.634 9.31676 268.568 9.73935 268.568 10.2067C268.568 10.6707 268.634 11.0916 268.767 11.4695C268.902 11.8473 269.106 12.1489 269.378 12.3743C269.653 12.5964 269.998 12.7074 270.412 12.7074ZM282.875 6.36364V7.75568H278.485V6.36364H282.875ZM279.569 4.53409H281.368V11.7031C281.368 11.9451 281.405 12.1307 281.478 12.2599C281.554 12.3859 281.653 12.4721 281.776 12.5185C281.899 12.5649 282.034 12.5881 282.184 12.5881C282.296 12.5881 282.399 12.5798 282.492 12.5632C282.588 12.5466 282.661 12.5317 282.711 12.5185L283.014 13.9254C282.918 13.9586 282.78 13.995 282.601 14.0348C282.426 14.0746 282.21 14.0978 281.955 14.1044C281.504 14.1177 281.098 14.0497 280.737 13.9006C280.376 13.7481 280.089 13.5128 279.877 13.1946C279.668 12.8764 279.565 12.4787 279.569 12.0014V4.53409ZM286.344 9.52557V14H284.544V3.81818H286.304V7.66122H286.393C286.572 7.23035 286.849 6.89062 287.224 6.64205C287.601 6.39015 288.082 6.2642 288.665 6.2642C289.196 6.2642 289.658 6.37524 290.052 6.5973C290.447 6.81937 290.752 7.14418 290.967 7.57173C291.186 7.99929 291.295 8.52131 291.295 9.13778V14H289.496V9.41619C289.496 8.90246 289.363 8.50308 289.098 8.21804C288.836 7.92969 288.468 7.78551 287.994 7.78551C287.676 7.78551 287.391 7.85511 287.139 7.99432C286.89 8.13021 286.695 8.32741 286.552 8.58594C286.413 8.84446 286.344 9.15767 286.344 9.52557ZM296.51 14.1491C295.745 14.1491 295.084 13.9901 294.527 13.6719C293.973 13.3504 293.547 12.8963 293.249 12.3097C292.951 11.7197 292.802 11.0253 292.802 10.2266C292.802 9.44105 292.951 8.75166 293.249 8.15838C293.551 7.56179 293.972 7.09777 294.512 6.76633C295.052 6.43158 295.687 6.2642 296.416 6.2642C296.887 6.2642 297.331 6.34044 297.748 6.4929C298.169 6.64205 298.541 6.87405 298.862 7.18892C299.187 7.50379 299.442 7.90483 299.628 8.39205C299.813 8.87595 299.906 9.45265 299.906 10.1222V10.674H293.647V9.46094H298.181C298.178 9.11624 298.103 8.80966 297.957 8.54119C297.811 8.26941 297.608 8.05563 297.346 7.89986C297.087 7.74408 296.786 7.66619 296.441 7.66619C296.073 7.66619 295.75 7.75568 295.471 7.93466C295.193 8.11032 294.976 8.34233 294.82 8.63068C294.668 8.91572 294.59 9.22893 294.586 9.57031V10.6293C294.586 11.0734 294.668 11.4545 294.83 11.7727C294.992 12.0876 295.22 12.3295 295.511 12.4986C295.803 12.6643 296.144 12.7472 296.535 12.7472C296.797 12.7472 297.034 12.7107 297.246 12.6378C297.458 12.5616 297.642 12.4505 297.798 12.3047C297.954 12.1589 298.072 11.9782 298.151 11.7628L299.831 11.9517C299.725 12.3958 299.523 12.7836 299.225 13.1151C298.93 13.4432 298.552 13.6984 298.091 13.8807C297.631 14.0597 297.104 14.1491 296.51 14.1491ZM304.901 14V6.36364H306.621V7.66122H306.711C306.87 7.22372 307.134 6.88234 307.501 6.63707C307.869 6.38849 308.308 6.2642 308.819 6.2642C309.336 6.2642 309.772 6.39015 310.126 6.64205C310.484 6.89062 310.736 7.23035 310.882 7.66122H310.962C311.131 7.23698 311.416 6.89891 311.817 6.64702C312.221 6.39181 312.7 6.2642 313.254 6.2642C313.956 6.2642 314.53 6.48627 314.974 6.9304C315.418 7.37453 315.64 8.02249 315.64 8.87429V14H313.835V9.1527C313.835 8.67874 313.709 8.33239 313.457 8.11364C313.205 7.89157 312.897 7.78054 312.533 7.78054C312.098 7.78054 311.759 7.91643 311.513 8.18821C311.272 8.45668 311.151 8.80634 311.151 9.23722V14H309.386V9.07812C309.386 8.68371 309.266 8.36884 309.028 8.13352C308.792 7.8982 308.484 7.78054 308.103 7.78054C307.844 7.78054 307.609 7.84683 307.397 7.9794C307.185 8.10866 307.016 8.29261 306.89 8.53125C306.764 8.76657 306.701 9.04167 306.701 9.35653V14H304.901ZM320.846 14.1491C320.081 14.1491 319.42 13.9901 318.863 13.6719C318.309 13.3504 317.883 12.8963 317.585 12.3097C317.287 11.7197 317.138 11.0253 317.138 10.2266C317.138 9.44105 317.287 8.75166 317.585 8.15838C317.887 7.56179 318.308 7.09777 318.848 6.76633C319.388 6.43158 320.023 6.2642 320.752 6.2642C321.223 6.2642 321.667 6.34044 322.084 6.4929C322.505 6.64205 322.876 6.87405 323.198 7.18892C323.523 7.50379 323.778 7.90483 323.964 8.39205C324.149 8.87595 324.242 9.45265 324.242 10.1222V10.674H317.983V9.46094H322.517C322.514 9.11624 322.439 8.80966 322.293 8.54119C322.147 8.26941 321.943 8.05563 321.682 7.89986C321.423 7.74408 321.122 7.66619 320.777 7.66619C320.409 7.66619 320.086 7.75568 319.807 7.93466C319.529 8.11032 319.312 8.34233 319.156 8.63068C319.004 8.91572 318.926 9.22893 318.922 9.57031V10.6293C318.922 11.0734 319.004 11.4545 319.166 11.7727C319.328 12.0876 319.555 12.3295 319.847 12.4986C320.139 12.6643 320.48 12.7472 320.871 12.7472C321.133 12.7472 321.37 12.7107 321.582 12.6378C321.794 12.5616 321.978 12.4505 322.134 12.3047C322.29 12.1589 322.407 11.9782 322.487 11.7628L324.167 11.9517C324.061 12.3958 323.859 12.7836 323.561 13.1151C323.266 13.4432 322.888 13.6984 322.427 13.8807C321.967 14.0597 321.44 14.1491 320.846 14.1491ZM331.8 8.3821L330.159 8.56108C330.113 8.39536 330.032 8.23958 329.916 8.09375C329.803 7.94792 329.651 7.83026 329.458 7.74077C329.266 7.65128 329.031 7.60653 328.752 7.60653C328.378 7.60653 328.063 7.68774 327.808 7.85014C327.556 8.01255 327.432 8.22301 327.435 8.48153C327.432 8.7036 327.513 8.88423 327.679 9.02344C327.848 9.16264 328.126 9.27699 328.514 9.36648L329.816 9.64489C330.539 9.80066 331.076 10.0476 331.427 10.3857C331.782 10.7237 331.961 11.1662 331.964 11.7131C331.961 12.1937 331.82 12.6179 331.542 12.9858C331.266 13.3504 330.884 13.6354 330.393 13.8409C329.903 14.0464 329.339 14.1491 328.703 14.1491C327.768 14.1491 327.016 13.9536 326.446 13.5625C325.876 13.1681 325.536 12.6196 325.426 11.9169L327.181 11.7479C327.261 12.0926 327.43 12.3527 327.689 12.5284C327.947 12.7041 328.283 12.7919 328.698 12.7919C329.125 12.7919 329.468 12.7041 329.727 12.5284C329.989 12.3527 330.12 12.1357 330.12 11.8771C330.12 11.6584 330.035 11.4777 329.866 11.3352C329.7 11.1927 329.442 11.0833 329.091 11.0071L327.788 10.7337C327.056 10.5812 326.514 10.3243 326.162 9.96307C325.811 9.59848 325.637 9.13778 325.64 8.58097C325.637 8.11032 325.765 7.70265 326.023 7.35795C326.285 7.00994 326.648 6.74148 327.112 6.55256C327.579 6.36032 328.118 6.2642 328.728 6.2642C329.623 6.2642 330.327 6.45478 330.841 6.83594C331.358 7.21709 331.677 7.73248 331.8 8.3821ZM339.484 8.3821L337.843 8.56108C337.797 8.39536 337.715 8.23958 337.599 8.09375C337.487 7.94792 337.334 7.83026 337.142 7.74077C336.95 7.65128 336.714 7.60653 336.436 7.60653C336.062 7.60653 335.747 7.68774 335.491 7.85014C335.24 8.01255 335.115 8.22301 335.119 8.48153C335.115 8.7036 335.196 8.88423 335.362 9.02344C335.531 9.16264 335.81 9.27699 336.197 9.36648L337.5 9.64489C338.223 9.80066 338.759 10.0476 339.111 10.3857C339.465 10.7237 339.644 11.1662 339.648 11.7131C339.644 12.1937 339.504 12.6179 339.225 12.9858C338.95 13.3504 338.567 13.6354 338.077 13.8409C337.586 14.0464 337.023 14.1491 336.386 14.1491C335.452 14.1491 334.699 13.9536 334.129 13.5625C333.559 13.1681 333.219 12.6196 333.11 11.9169L334.865 11.7479C334.945 12.0926 335.114 12.3527 335.372 12.5284C335.631 12.7041 335.967 12.7919 336.381 12.7919C336.809 12.7919 337.152 12.7041 337.411 12.5284C337.672 12.3527 337.803 12.1357 337.803 11.8771C337.803 11.6584 337.719 11.4777 337.55 11.3352C337.384 11.1927 337.125 11.0833 336.774 11.0071L335.472 10.7337C334.739 10.5812 334.197 10.3243 333.846 9.96307C333.495 9.59848 333.321 9.13778 333.324 8.58097C333.321 8.11032 333.448 7.70265 333.707 7.35795C333.969 7.00994 334.331 6.74148 334.795 6.55256C335.263 6.36032 335.801 6.2642 336.411 6.2642C337.306 6.2642 338.01 6.45478 338.524 6.83594C339.041 7.21709 339.361 7.73248 339.484 8.3821ZM343.329 14.1541C342.845 14.1541 342.409 14.0679 342.022 13.8956C341.637 13.7199 341.332 13.4614 341.107 13.12C340.885 12.7786 340.774 12.3577 340.774 11.8572C340.774 11.4264 340.853 11.0701 341.012 10.7884C341.172 10.5066 341.389 10.2812 341.664 10.1122C341.939 9.94318 342.249 9.81558 342.593 9.7294C342.941 9.63991 343.301 9.57528 343.672 9.53551C344.12 9.48911 344.483 9.44768 344.761 9.41122C345.039 9.37145 345.242 9.31179 345.368 9.23224C345.497 9.14938 345.561 9.02178 345.561 8.84943V8.8196C345.561 8.44508 345.45 8.15507 345.228 7.94957C345.006 7.74408 344.686 7.64134 344.269 7.64134C343.828 7.64134 343.478 7.73745 343.22 7.92969C342.965 8.12192 342.792 8.34896 342.703 8.6108L341.022 8.37216C341.155 7.90814 341.374 7.52036 341.679 7.20881C341.984 6.89394 342.356 6.65862 342.797 6.50284C343.238 6.34375 343.725 6.2642 344.259 6.2642C344.627 6.2642 344.993 6.30729 345.358 6.39347C345.722 6.47964 346.055 6.62216 346.357 6.82102C346.658 7.01657 346.9 7.28338 347.083 7.62145C347.268 7.95952 347.361 8.3821 347.361 8.8892V14H345.631V12.951H345.571C345.462 13.1631 345.308 13.362 345.109 13.5476C344.913 13.7299 344.667 13.8774 344.368 13.9901C344.073 14.0994 343.727 14.1541 343.329 14.1541ZM343.797 12.8317C344.158 12.8317 344.471 12.7604 344.736 12.6179C345.001 12.4721 345.205 12.2798 345.348 12.0412C345.493 11.8026 345.566 11.5424 345.566 11.2607V10.3608C345.51 10.4072 345.414 10.4503 345.278 10.4901C345.145 10.5298 344.996 10.5646 344.831 10.5945C344.665 10.6243 344.501 10.6508 344.338 10.674C344.176 10.6972 344.035 10.7171 343.916 10.7337C343.647 10.7701 343.407 10.8298 343.195 10.9126C342.983 10.9955 342.815 11.1115 342.693 11.2607C342.57 11.4065 342.509 11.5954 342.509 11.8274C342.509 12.1589 342.63 12.4091 342.872 12.5781C343.114 12.7472 343.422 12.8317 343.797 12.8317ZM352.492 17.0227C351.846 17.0227 351.29 16.9349 350.826 16.7592C350.362 16.5869 349.989 16.3549 349.708 16.0632C349.426 15.7715 349.23 15.4484 349.121 15.0938L350.742 14.701C350.815 14.8501 350.921 14.9976 351.06 15.1435C351.199 15.2926 351.386 15.4152 351.622 15.5114C351.86 15.6108 352.16 15.6605 352.522 15.6605C353.032 15.6605 353.455 15.5362 353.789 15.2876C354.124 15.0424 354.292 14.638 354.292 14.0746V12.6278H354.202C354.109 12.8134 353.973 13.004 353.794 13.1996C353.619 13.3951 353.385 13.5592 353.093 13.6918C352.805 13.8243 352.442 13.8906 352.005 13.8906C351.418 13.8906 350.886 13.7531 350.409 13.478C349.935 13.1996 349.557 12.7853 349.275 12.2351C348.997 11.6816 348.858 10.9889 348.858 10.157C348.858 9.31842 348.997 8.6108 349.275 8.03409C349.557 7.45407 349.936 7.01491 350.414 6.71662C350.891 6.41501 351.423 6.2642 352.01 6.2642C352.457 6.2642 352.825 6.34044 353.113 6.4929C353.405 6.64205 353.637 6.82268 353.809 7.0348C353.982 7.24361 354.113 7.44081 354.202 7.62642H354.301V6.36364H356.076V14.1243C356.076 14.7772 355.921 15.3175 355.609 15.745C355.297 16.1726 354.872 16.4924 354.331 16.7045C353.791 16.9167 353.178 17.0227 352.492 17.0227ZM352.507 12.4787C352.888 12.4787 353.213 12.3859 353.481 12.2003C353.75 12.0147 353.953 11.7479 354.093 11.3999C354.232 11.0518 354.301 10.6342 354.301 10.147C354.301 9.66643 354.232 9.2455 354.093 8.88423C353.957 8.52296 353.755 8.2429 353.486 8.04403C353.221 7.84186 352.895 7.74077 352.507 7.74077C352.106 7.74077 351.771 7.84517 351.502 8.05398C351.234 8.26278 351.032 8.54948 350.896 8.91406C350.76 9.27533 350.692 9.68632 350.692 10.147C350.692 10.6143 350.76 11.0237 350.896 11.375C351.035 11.723 351.239 11.9948 351.507 12.1903C351.779 12.3826 352.112 12.4787 352.507 12.4787ZM361.301 14.1491C360.536 14.1491 359.875 13.9901 359.318 13.6719C358.764 13.3504 358.338 12.8963 358.04 12.3097C357.742 11.7197 357.593 11.0253 357.593 10.2266C357.593 9.44105 357.742 8.75166 358.04 8.15838C358.342 7.56179 358.763 7.09777 359.303 6.76633C359.843 6.43158 360.478 6.2642 361.207 6.2642C361.678 6.2642 362.122 6.34044 362.539 6.4929C362.96 6.64205 363.332 6.87405 363.653 7.18892C363.978 7.50379 364.233 7.90483 364.419 8.39205C364.604 8.87595 364.697 9.45265 364.697 10.1222V10.674H358.438V9.46094H362.972C362.969 9.11624 362.894 8.80966 362.748 8.54119C362.602 8.26941 362.399 8.05563 362.137 7.89986C361.878 7.74408 361.577 7.66619 361.232 7.66619C360.864 7.66619 360.541 7.75568 360.262 7.93466C359.984 8.11032 359.767 8.34233 359.611 8.63068C359.459 8.91572 359.381 9.22893 359.377 9.57031V10.6293C359.377 11.0734 359.459 11.4545 359.621 11.7727C359.783 12.0876 360.011 12.3295 360.302 12.4986C360.594 12.6643 360.935 12.7472 361.326 12.7472C361.588 12.7472 361.825 12.7107 362.037 12.6378C362.249 12.5616 362.433 12.4505 362.589 12.3047C362.745 12.1589 362.863 11.9782 362.942 11.7628L364.623 11.9517C364.516 12.3958 364.314 12.7836 364.016 13.1151C363.721 13.4432 363.343 13.6984 362.882 13.8807C362.422 14.0597 361.895 14.1491 361.301 14.1491ZM372.255 8.3821L370.615 8.56108C370.568 8.39536 370.487 8.23958 370.371 8.09375C370.258 7.94792 370.106 7.83026 369.914 7.74077C369.721 7.65128 369.486 7.60653 369.208 7.60653C368.833 7.60653 368.518 7.68774 368.263 7.85014C368.011 8.01255 367.887 8.22301 367.89 8.48153C367.887 8.7036 367.968 8.88423 368.134 9.02344C368.303 9.16264 368.581 9.27699 368.969 9.36648L370.271 9.64489C370.994 9.80066 371.531 10.0476 371.882 10.3857C372.237 10.7237 372.416 11.1662 372.419 11.7131C372.416 12.1937 372.275 12.6179 371.997 12.9858C371.722 13.3504 371.339 13.6354 370.848 13.8409C370.358 14.0464 369.794 14.1491 369.158 14.1491C368.223 14.1491 367.471 13.9536 366.901 13.5625C366.331 13.1681 365.991 12.6196 365.882 11.9169L367.637 11.7479C367.716 12.0926 367.885 12.3527 368.144 12.5284C368.402 12.7041 368.739 12.7919 369.153 12.7919C369.58 12.7919 369.923 12.7041 370.182 12.5284C370.444 12.3527 370.575 12.1357 370.575 11.8771C370.575 11.6584 370.49 11.4777 370.321 11.3352C370.155 11.1927 369.897 11.0833 369.546 11.0071L368.243 10.7337C367.511 10.5812 366.969 10.3243 366.617 9.96307C366.266 9.59848 366.092 9.13778 366.095 8.58097C366.092 8.11032 366.22 7.70265 366.478 7.35795C366.74 7.00994 367.103 6.74148 367.567 6.55256C368.034 6.36032 368.573 6.2642 369.183 6.2642C370.078 6.2642 370.782 6.45478 371.296 6.83594C371.813 7.21709 372.133 7.73248 372.255 8.3821ZM375.012 14.1094C374.71 14.1094 374.452 14.0033 374.236 13.7912C374.021 13.5791 373.915 13.3205 373.918 13.0156C373.915 12.7173 374.021 12.4621 374.236 12.25C374.452 12.0379 374.71 11.9318 375.012 11.9318C375.304 11.9318 375.557 12.0379 375.773 12.25C375.991 12.4621 376.102 12.7173 376.106 13.0156C376.102 13.2178 376.049 13.4018 375.947 13.5675C375.847 13.7332 375.715 13.8658 375.549 13.9652C375.386 14.0613 375.207 14.1094 375.012 14.1094Z" fill="white"/>
</svg>
